<svg xmlns="http://www.w3.org/2000/svg" viewBox="0 33 2000 789" role="img" aria-label="Маршрут из десяти точек на карте мира: 82 786 километров по поверхности Земли"><g fill="none" stroke="#14161c" stroke-opacity="0.22" stroke-width="1.6" stroke-linejoin="round"><path d="M669.0,944.7 L667.4,947.5 L665.8,950.0 L654.1,949.2 L641.7,949.6 L634.8,947.7 L634.8,947.5 L631.7,945.9 L644.2,946.1 L656.2,946.6 L660.3,944.3 L663.3,942.4 L669.0,944.7Z"/><path d="M115.5,941.7 L104.8,942.4 L97.6,940.5 L94.3,938.5 L94.1,938.2 L90.5,936.6 L90.5,936.6 L93.9,934.6 L104.2,935.4 L109.7,937.2 L114.0,939.1 L115.5,941.7Z"/><path d="M749.1,933.6 L756.0,936.0 L758.4,939.4 L759.0,941.8 L759.3,944.6 L750.7,946.3 L741.6,947.7 L731.2,949.1 L719.5,950.1 L706.4,949.8 L699.1,948.0 L700.1,945.7 L711.9,944.2 L716.7,942.3 L720.2,939.9 L722.7,937.8 L726.1,935.9 L729.7,933.6 L729.7,933.6 L732.5,933.6 L740.8,932.4 L749.1,933.6Z"/><path d="M326.6,908.3 L333.8,909.2 L340.4,908.2 L337.3,910.2 L332.0,911.6 L324.3,911.2 L318.8,909.2 L318.8,909.2 L320.0,907.4 L326.6,908.3Z"/><path d="M302.4,908.2 L310.9,910.4 L307.7,910.2 L300.5,909.6 L292.9,908.1 L292.9,908.1 L296.9,906.9 L302.4,908.2Z"/><path d="M450.1,899.6 L456.2,900.4 L462.3,899.7 L465.6,902.9 L461.2,902.5 L454.5,902.7 L447.6,902.5 L440.1,902.8 L434.4,901.7 L431.5,899.4 L431.5,899.4 L435.0,898.4 L442.1,899.2 L450.1,899.6Z"/><path d="M619.7,894.2 L620.4,896.7 L619.4,898.9 L617.9,900.9 L611.3,901.7 L605.1,902.8 L597.8,902.7 L600.6,900.5 L594.0,901.3 L587.8,902.0 L583.6,900.4 L583.3,898.1 L589.4,895.9 L589.4,895.9 L593.2,895.3 L599.6,895.5 L601.2,892.7 L601.5,890.6 L601.4,886.1 L604.6,883.5 L609.7,882.7 L612.6,884.7 L613.9,886.8 L616.3,889.3 L618.2,891.7 L619.7,894.2Z"/><path d="M674.4,856.4 L672.0,857.6 L667.8,856.7 L663.3,857.3 L659.5,858.6 L655.4,860.0 L652.7,861.6 L652.0,863.8 L652.3,865.9 L654.9,867.7 L651.1,869.0 L645.9,869.5 L642.8,871.3 L639.5,873.1 L636.1,875.5 L635.2,877.5 L637.2,879.8 L640.1,881.5 L644.7,882.9 L648.9,884.6 L651.2,886.8 L652.4,888.8 L654.0,891.0 L656.6,892.9 L658.3,894.9 L659.0,900.1 L660.7,902.1 L661.1,904.3 L662.8,906.5 L662.1,909.4 L659.0,911.7 L655.8,913.6 L648.4,914.3 L645.9,916.3 L642.5,918.1 L634.1,920.2 L626.7,921.1 L619.7,922.3 L612.2,923.5 L607.8,925.7 L598.9,926.0 L589.1,925.7 L580.2,926.2 L570.9,926.2 L572.6,928.4 L581.1,929.3 L587.3,930.9 L590.8,932.8 L584.6,934.6 L575.0,934.0 L567.1,935.4 L566.8,937.7 L566.5,939.9 L573.1,941.7 L574.3,943.8 L581.3,945.9 L593.1,946.8 L603.1,948.3 L611.0,950.0 L621.2,951.8 L635.0,952.6 L648.6,954.2 L658.0,955.8 L668.4,957.6 L673.8,960.3 L676.5,962.3 L683.3,960.4 L692.4,958.7 L702.1,957.0 L713.6,955.6 L723.5,954.1 L737.4,953.9 L751.0,954.7 L762.2,956.0 L765.8,953.6 L773.5,952.0 L787.5,951.9 L798.5,950.7 L809.0,949.5 L820.5,948.7 L832.8,947.7 L841.4,946.3 L837.5,944.4 L835.1,942.4 L835.1,940.3 L824.3,940.6 L812.9,941.4 L802.0,941.4 L800.5,939.4 L801.2,935.2 L803.7,934.0 L811.7,932.7 L821.0,931.4 L827.8,929.8 L834.5,928.1 L839.5,926.0 L847.2,925.0 L854.7,924.2 L858.5,923.8 L867.1,923.6 L875.2,922.8 L882.1,921.7 L888.8,920.4 L894.9,919.1 L902.7,917.4 L907.5,915.5 L912.8,913.9 L914.4,911.7 L908.5,910.4 L910.5,908.1 L914.2,906.4 L920.0,905.3 L926.0,904.0 L931.7,902.2 L936.1,900.1 L938.8,897.4 L942.8,895.9 L949.4,896.2 L952.2,898.1 L958.8,898.3 L959.0,896.2 L961.8,894.1 L967.8,894.6 L969.2,896.7 L975.9,897.0 L983.1,896.0 L990.0,895.4 L996.3,895.7 L998.7,898.0 L1004.8,896.1 L1010.5,895.2 L1016.8,894.4 L1023.0,893.6 L1028.7,892.3 L1034.9,891.5 L1039.6,890.3 L1043.0,888.3 L1047.2,889.7 L1052.9,889.0 L1056.9,891.6 L1060.1,893.5 L1066.4,892.4 L1068.9,890.3 L1074.6,888.7 L1081.9,889.1 L1084.0,891.1 L1088.6,889.1 L1094.6,888.4 L1101.1,888.2 L1107.0,888.3 L1113.2,889.0 L1119.2,889.3 L1121.8,891.1 L1125.4,892.8 L1131.5,891.8 L1138.0,891.6 L1144.3,891.6 L1150.5,891.5 L1156.1,890.7 L1161.9,890.0 L1166.8,888.5 L1172.1,887.5 L1177.7,887.0 L1182.0,885.5 L1185.0,882.4 L1188.2,880.6 L1193.9,881.4 L1196.1,883.4 L1200.9,884.7 L1206.7,884.3 L1210.6,886.2 L1214.7,887.6 L1220.4,886.3 L1222.3,883.9 L1227.3,883.0 L1233.1,881.1 L1238.5,880.4 L1245.1,879.3 L1249.4,878.1 L1254.0,876.8 L1258.4,875.6 L1263.6,876.2 L1268.6,874.3 L1272.2,872.7 L1277.4,872.8 L1282.0,871.5 L1283.1,869.6 L1287.7,868.1 L1292.3,867.0 L1297.9,866.1 L1303.0,865.7 L1307.9,866.0 L1313.1,866.5 L1317.5,868.1 L1318.1,870.4 L1323.0,872.3 L1326.4,873.8 L1333.0,874.5 L1336.7,876.0 L1341.3,877.5 L1346.6,877.8 L1351.1,876.8 L1355.8,874.5 L1361.1,875.7 L1366.5,876.3 L1371.7,877.0 L1377.2,877.4 L1382.7,877.4 L1387.3,883.2 L1387.1,884.6 L1386.4,887.1 L1381.1,888.5 L1376.7,890.6 L1377.5,892.8 L1383.7,892.7 L1382.9,894.8 L1380.1,896.9 L1377.5,899.2 L1381.7,900.9 L1388.2,901.5 L1394.6,900.5 L1397.6,898.3 L1399.5,896.2 L1402.5,894.5 L1406.0,892.9 L1407.4,890.9 L1410.4,888.2 L1413.8,887.6 L1420.2,887.4 L1425.7,886.8 L1431.4,885.9 L1434.1,883.7 L1435.7,881.7 L1439.5,879.6 L1445.0,878.2 L1449.6,877.1 L1452.7,875.2 L1455.8,874.3 L1459.9,873.4 L1465.4,873.9 L1470.4,873.4 L1475.9,872.7 L1482.0,873.1 L1486.0,871.5 L1488.8,867.8 L1490.9,869.4 L1493.5,872.0 L1498.2,873.1 L1503.5,873.5 L1508.8,872.8 L1514.5,873.3 L1519.7,873.4 L1523.2,872.8 L1527.9,873.2 L1532.1,874.4 L1537.1,873.6 L1543.1,873.6 L1548.2,872.8 L1554.0,873.6 L1557.7,871.8 L1560.5,869.9 L1564.3,868.4 L1571.3,864.2 L1574.9,865.0 L1579.1,866.5 L1582.8,868.5 L1589.9,871.9 L1595.3,872.0 L1600.5,872.0 L1606.4,871.3 L1612.4,870.6 L1617.0,869.0 L1620.8,867.4 L1627.0,867.2 L1631.1,866.0 L1635.5,867.1 L1638.3,868.8 L1642.2,870.6 L1648.3,870.3 L1652.1,871.8 L1658.8,873.2 L1665.7,873.7 L1671.5,873.3 L1675.9,871.5 L1679.6,869.8 L1684.6,869.4 L1689.6,870.1 L1695.3,870.7 L1700.6,869.8 L1705.6,869.8 L1710.5,870.3 L1715.6,870.9 L1720.6,869.9 L1726.6,869.0 L1732.2,868.8 L1738.5,868.8 L1743.6,868.3 L1748.7,867.8 L1750.2,865.1 L1750.4,862.8 L1753.9,864.3 L1754.9,866.9 L1756.7,869.1 L1759.0,871.0 L1763.7,872.0 L1770.0,871.6 L1777.3,871.5 L1782.3,871.2 L1789.6,871.2 L1794.8,871.1 L1802.1,871.3 L1808.3,871.8 L1812.2,873.5 L1811.1,875.6 L1814.7,877.2 L1820.7,878.5 L1826.9,879.9 L1834.1,880.9 L1841.6,881.8 L1847.2,882.6 L1853.5,882.7 L1857.1,880.9 L1862.0,882.4 L1866.3,884.2 L1871.2,885.5 L1877.9,886.0 L1884.3,886.7 L1887.1,888.8 L1893.4,890.1 L1897.6,892.1 L1903.8,893.0 L1910.2,892.9 L1916.2,893.2 L1922.9,893.1 L1929.5,893.5 L1935.7,894.3 L1941.5,895.6 L1947.2,896.7 L1951.1,898.3 L1950.5,900.5 L1947.6,902.5 L1945.1,905.0 L1943.1,906.9 L1940.5,909.2 L1933.2,910.1 L1929.9,912.0 L1922.7,913.2 L1920.2,915.4 L1916.4,917.5 L1912.4,919.2 L1910.1,921.5 L1908.7,923.6 L1908.2,926.1 L1908.3,928.1 L1911.4,930.3 L1912.6,932.4 L1915.2,934.3 L1925.6,935.1 L1927.8,937.5 L1917.7,938.4 L1909.3,939.6 L1898.7,939.8 L1894.0,942.9 L1893.0,945.6 L1890.6,947.6 L1887.7,949.7 L1895.1,951.5 L1897.9,953.8 L1902.7,955.9 L1909.5,957.8 L1917.2,959.5 L1925.6,961.2 L1938.3,963.0 L1941.1,965.7 L1957.1,966.9 L1958.2,967.3 L1962.4,969.0 L1977.7,967.5 L1990.4,969.3 L2000.0,970.6 L2000.0,1000.0 L0.0,1000.0 L0.0,970.6 L0.3,970.7 L5.2,967.4 L15.2,969.2 L15.9,969.0 L17.4,968.5 L19.3,968.0 L20.9,967.5 L21.8,967.2 L22.6,967.2 L23.2,967.3 L31.2,969.6 L38.2,967.3 L39.5,967.0 L55.8,966.0 L61.1,967.3 L63.7,968.0 L72.1,969.8 L87.9,971.3 L100.4,973.0 L121.8,974.3 L137.8,972.8 L161.4,973.9 L174.8,975.6 L189.5,974.0 L205.0,972.4 L206.2,969.8 L184.3,969.6 L166.3,968.3 L161.7,966.1 L146.7,964.9 L147.7,962.4 L149.8,960.1 L151.9,958.1 L150.8,955.8 L141.5,954.3 L137.3,952.3 L128.7,950.6 L142.2,950.9 L155.0,950.0 L163.1,951.9 L173.0,950.2 L182.1,948.2 L186.6,946.3 L184.6,944.0 L177.4,942.5 L169.3,940.9 L157.8,940.6 L147.8,939.8 L137.1,939.2 L133.5,937.2 L126.3,935.4 L121.9,933.5 L120.2,927.2 L122.9,927.7 L127.9,929.4 L137.1,928.9 L145.9,928.1 L150.4,930.5 L159.3,930.0 L166.7,928.8 L173.6,927.3 L179.9,925.4 L188.3,924.9 L188.1,922.8 L186.1,920.7 L187.8,918.8 L194.9,917.8 L198.2,919.7 L206.7,918.6 L213.1,917.1 L221.1,917.0 L228.6,916.5 L236.1,915.2 L242.1,914.0 L248.8,912.8 L253.2,913.1 L257.0,913.6 L265.2,912.8 L272.6,913.8 L280.3,913.7 L287.5,912.9 L295.1,913.4 L303.3,914.0 L311.0,913.8 L319.1,913.9 L327.4,914.0 L335.0,913.8 L340.6,912.1 L347.4,911.3 L354.4,912.5 L361.0,911.5 L367.0,909.5 L370.6,911.3 L372.5,913.2 L376.1,915.1 L381.9,913.4 L388.5,915.5 L396.0,916.2 L402.4,917.7 L410.3,917.4 L417.4,916.4 L425.7,916.6 L433.2,917.4 L440.9,918.3 L443.8,915.9 L440.2,914.1 L437.5,912.1 L430.3,911.7 L427.1,909.6 L426.0,907.6 L424.0,903.4 L428.2,904.2 L435.5,904.5 L442.7,904.2 L449.2,905.1 L454.9,906.7 L457.3,908.7 L464.8,909.0 L472.0,908.2 L479.6,907.1 L486.4,906.5 L492.1,907.8 L499.5,907.3 L504.3,903.1 L508.8,905.6 L515.2,906.6 L522.1,906.0 L526.7,908.2 L534.0,908.4 L540.7,909.1 L547.4,910.3 L551.7,908.2 L553.9,906.3 L559.5,908.4 L567.1,907.9 L572.7,909.1 L576.5,910.9 L583.9,910.4 L589.7,909.2 L595.4,907.8 L602.1,907.0 L609.9,906.4 L617.0,905.6 L622.5,904.4 L625.7,902.7 L627.0,900.3 L626.4,898.0 L624.6,895.8 L622.7,893.6 L620.9,891.5 L619.5,889.5 L619.2,887.3 L619.7,885.1 L622.4,883.1 L624.5,880.8 L625.4,878.6 L624.3,876.2 L623.7,874.0 L626.4,871.5 L629.4,869.9 L633.0,867.8 L636.8,866.1 L641.3,864.5 L643.5,862.1 L646.5,860.5 L650.0,859.1 L655.3,858.8 L658.8,857.1 L662.7,856.0 L667.3,855.3 L671.3,853.9 L674.5,852.2 L678.8,851.5 L682.1,852.9 L680.0,854.8 L674.4,856.4Z"/><path d="M623.6,799.2 L630.8,802.5 L638.6,803.9 L636.1,806.7 L630.8,806.9 L628.0,805.0 L626.2,807.2 L621.4,809.0 L615.4,808.3 L611.3,806.7 L605.5,805.9 L598.5,802.8 L592.9,799.8 L585.2,793.5 L589.8,794.7 L597.6,798.4 L605.0,800.4 L607.8,797.9 L609.6,794.1 L614.7,791.8 L618.7,792.4 L618.7,792.4 L620.8,795.0 L623.6,799.2Z"/><path d="M674.7,783.9 L679.2,786.4 L677.5,788.3 L670.0,790.0 L667.5,788.1 L662.8,790.6 L660.0,788.1 L666.7,784.7 L671.4,786.1 L674.7,783.9Z"/><path d="M1390.4,776.2 L1381.9,776.5 L1381.8,773.6 L1382.6,771.3 L1383.0,770.1 L1386.6,771.9 L1391.8,772.6 L1392.0,773.6 L1390.4,776.2Z"/><path d="M1807.8,726.6 L1813.1,728.5 L1816.2,727.8 L1820.5,726.7 L1823.8,727.1 L1824.2,733.7 L1822.3,735.6 L1821.7,740.1 L1819.8,738.5 L1815.9,742.4 L1814.8,742.1 L1811.4,741.9 L1808.0,737.2 L1807.2,733.5 L1804.0,728.7 L1804.1,726.1 L1807.8,726.6Z"/><path d="M1961.2,727.3 L1962.5,729.6 L1966.4,727.4 L1968.0,729.7 L1968.0,732.1 L1966.0,734.6 L1962.3,738.7 L1959.5,741.0 L1961.6,743.6 L1957.3,743.7 L1952.5,745.8 L1951.0,749.4 L1947.9,755.0 L1943.5,757.5 L1940.7,759.1 L1935.6,759.0 L1932.0,757.2 L1926.0,756.8 L1925.1,754.7 L1928.0,750.6 L1935.0,745.1 L1938.6,744.1 L1942.6,742.0 L1947.4,739.1 L1950.7,736.2 L1953.2,732.0 L1955.3,730.6 L1956.1,727.5 L1960.0,725.0 L1961.2,727.3Z"/><path d="M1970.1,700.9 L1974.1,706.7 L1974.2,702.9 L1976.7,704.4 L1977.5,708.6 L1982.0,710.5 L1985.8,710.9 L1988.9,708.8 L1991.8,709.4 L1990.4,714.3 L1988.7,717.6 L1984.5,717.5 L1983.0,719.2 L1983.5,721.6 L1982.7,722.6 L1980.6,725.6 L1977.8,729.4 L1973.6,731.6 L1972.6,730.1 L1970.3,729.3 L1973.5,724.8 L1971.7,721.7 L1965.7,719.5 L1965.8,717.5 L1969.9,715.5 L1970.8,711.3 L1970.5,707.7 L1968.3,704.0 L1968.4,703.0 L1965.8,700.7 L1961.4,695.8 L1959.1,691.8 L1961.2,691.4 L1964.2,694.5 L1968.5,695.9 L1970.1,700.9Z"/><path d="M1928.4,623.1 L1926.3,624.4 L1923.3,622.9 L1919.3,620.4 L1915.7,617.5 L1912.0,613.6 L1911.3,611.7 L1913.7,611.8 L1916.8,613.7 L1919.2,615.6 L1921.0,617.1 L1925.6,620.6 L1928.4,623.1Z"/><path d="M1991.0,596.3 L1992.9,597.9 L1992.0,600.8 L1988.5,601.6 L1985.5,600.9 L1984.9,598.5 L1987.1,596.6 L1989.6,597.2 L1991.0,596.3Z"/><path d="M1996.5,593.3 L1992.9,594.5 L1992.2,592.4 L1995.0,591.3 L1996.7,591.0 L2000.0,589.3 L2000.0,592.0 L1996.5,593.3Z"/><path d="M0.5,591.7 L0.0,592.0 L0.0,589.3 L1.1,589.0 L0.5,591.7Z"/><path d="M1932.5,591.5 L1930.6,592.2 L1928.8,589.8 L1929.0,588.3 L1932.5,591.5Z"/><path d="M1928.4,583.0 L1929.3,587.4 L1927.8,586.7 L1926.6,587.0 L1925.8,585.5 L1925.7,581.3 L1928.4,583.0Z"/><path d="M1278.1,575.3 L1279.0,582.0 L1280.4,584.6 L1279.9,587.3 L1278.9,588.9 L1277.0,585.6 L1276.0,587.3 L1277.0,591.4 L1276.5,593.8 L1275.0,595.0 L1274.6,599.7 L1272.5,606.2 L1269.7,613.9 L1266.3,624.4 L1264.2,632.1 L1261.6,638.6 L1257.1,639.9 L1252.3,642.2 L1249.1,640.8 L1244.7,638.8 L1243.1,635.9 L1242.8,631.0 L1240.8,626.5 L1240.3,622.5 L1241.3,618.5 L1243.9,617.6 L1243.9,615.7 L1246.5,611.5 L1247.0,608.0 L1245.7,605.3 L1244.7,601.8 L1244.2,596.7 L1246.2,593.6 L1246.9,590.1 L1249.7,589.9 L1252.8,588.7 L1254.8,587.7 L1257.3,587.7 L1260.5,584.5 L1265.0,581.1 L1266.7,578.3 L1265.9,575.9 L1268.3,576.6 L1271.4,572.7 L1271.5,569.4 L1273.3,566.9 L1275.2,569.3 L1276.7,571.6 L1278.1,575.3Z"/><path d="M1797.6,576.5 L1799.6,580.8 L1803.1,578.7 L1805.0,581.1 L1807.6,583.2 L1807.1,585.7 L1808.3,590.5 L1809.1,593.2 L1810.5,593.9 L1812.0,598.7 L1811.5,601.6 L1813.3,605.3 L1819.3,608.2 L1823.2,610.9 L1826.9,613.3 L1826.2,614.6 L1829.4,618.1 L1831.5,624.1 L1833.8,622.9 L1836.0,625.3 L1837.4,624.5 L1838.3,630.3 L1842.3,633.8 L1844.9,635.9 L1849.2,640.4 L1850.8,644.8 L1850.9,648.0 L1850.5,651.4 L1853.2,656.2 L1852.8,661.1 L1851.9,663.7 L1850.4,668.6 L1850.5,671.8 L1849.4,675.8 L1846.9,680.8 L1842.8,683.6 L1840.8,687.9 L1838.9,690.6 L1837.3,695.4 L1835.2,698.2 L1833.8,702.3 L1833.0,706.2 L1833.3,707.9 L1830.1,709.8 L1823.9,710.1 L1818.8,712.3 L1816.2,714.5 L1812.9,716.9 L1808.3,714.4 L1804.9,713.4 L1805.7,710.5 L1802.7,711.6 L1797.8,715.6 L1793.0,714.1 L1789.9,713.2 L1786.7,712.8 L1781.3,711.2 L1777.7,707.8 L1776.7,703.6 L1775.4,700.8 L1772.7,698.5 L1767.3,697.8 L1769.2,695.2 L1767.8,691.0 L1765.1,694.9 L1760.2,695.9 L1763.1,692.8 L1763.9,689.6 L1766.1,686.9 L1765.6,682.8 L1761.1,687.5 L1757.6,689.4 L1755.5,693.8 L1751.2,691.5 L1751.3,688.6 L1747.9,684.6 L1744.9,682.5 L1746.0,681.2 L1738.8,677.8 L1734.9,677.7 L1729.6,675.0 L1719.6,675.5 L1712.4,677.5 L1706.1,679.3 L1700.8,679.0 L1694.9,681.8 L1690.1,683.1 L1689.0,686.0 L1687.0,688.3 L1682.3,688.4 L1678.8,688.9 L1673.9,687.9 L1669.9,688.5 L1666.1,688.8 L1662.8,691.7 L1661.2,691.5 L1658.4,693.0 L1655.7,694.8 L1651.6,694.6 L1647.9,694.6 L1642.0,691.0 L1639.0,690.0 L1639.2,686.8 L1641.9,686.0 L1642.9,684.8 L1642.7,682.8 L1643.3,678.9 L1642.7,675.6 L1639.8,670.0 L1638.9,666.8 L1639.1,663.7 L1636.9,660.1 L1636.8,658.4 L1634.3,656.2 L1633.6,651.9 L1630.4,647.5 L1629.7,645.1 L1632.1,647.5 L1630.2,642.3 L1633.0,644.0 L1634.6,646.1 L1634.5,643.3 L1631.8,638.9 L1631.3,637.1 L1630.0,635.5 L1630.6,632.3 L1631.7,630.9 L1632.5,628.1 L1631.9,624.9 L1634.2,620.9 L1634.6,625.1 L1636.9,621.3 L1641.4,619.4 L1644.2,617.0 L1648.4,615.0 L1650.9,614.6 L1652.5,615.3 L1656.8,613.2 L1660.2,612.6 L1661.0,611.4 L1662.5,610.8 L1665.6,611.0 L1671.4,609.4 L1674.4,606.9 L1675.9,603.9 L1679.1,601.1 L1679.4,598.9 L1679.5,595.9 L1683.4,591.1 L1685.7,595.9 L1688.1,594.8 L1686.1,592.2 L1687.9,589.5 L1690.3,590.7 L1691.0,586.5 L1694.0,583.8 L1695.4,581.6 L1698.2,580.6 L1698.3,579.1 L1700.7,579.7 L1700.8,578.3 L1703.2,577.5 L1705.9,576.8 L1710.0,579.3 L1713.1,582.6 L1716.6,582.6 L1720.1,583.2 L1718.9,580.1 L1721.6,575.7 L1724.1,574.2 L1723.2,572.8 L1725.7,569.6 L1729.0,567.7 L1731.9,568.3 L1736.5,567.3 L1736.4,564.5 L1732.4,562.6 L1735.3,561.8 L1739.0,563.2 L1741.9,565.5 L1746.6,566.9 L1748.2,566.3 L1751.7,568.0 L1754.9,566.5 L1757.0,566.9 L1758.3,565.9 L1760.8,568.6 L1759.4,571.6 L1757.3,573.8 L1755.3,574.0 L1756.0,576.2 L1754.4,579.0 L1752.4,581.8 L1752.8,583.3 L1757.2,586.4 L1761.5,588.2 L1764.3,590.1 L1768.4,593.4 L1769.9,593.4 L1772.8,594.8 L1773.7,596.5 L1779.0,598.4 L1782.6,596.5 L1783.7,593.5 L1784.9,591.0 L1785.5,588.0 L1787.2,583.6 L1786.5,580.9 L1786.9,579.3 L1786.2,576.1 L1786.9,571.9 L1788.0,570.8 L1787.1,568.9 L1788.5,566.0 L1789.5,562.9 L1789.7,561.3 L1791.8,559.3 L1793.3,562.0 L1793.7,565.5 L1795.1,566.1 L1795.3,568.5 L1797.3,571.3 L1797.8,574.4 L1797.6,576.5Z"/><path d="M1900.7,558.2 L1902.2,560.1 L1898.3,560.1 L1896.2,556.7 L1899.5,558.0 L1900.7,558.2Z"/><path d="M1670.6,556.9 L1668.3,557.0 L1660.9,553.1 L1666.1,552.0 L1669.0,553.7 L1671.0,555.4 L1670.6,556.9Z"/><path d="M1893.6,554.8 L1891.5,555.0 L1888.1,554.4 L1886.9,553.6 L1887.2,551.3 L1890.9,552.2 L1892.7,553.4 L1893.6,554.8Z"/><path d="M1898.2,553.3 L1897.4,554.4 L1893.3,549.5 L1892.1,546.2 L1894.0,546.2 L1896.0,550.7 L1898.2,553.3Z"/><path d="M1691.3,556.3 L1686.6,557.6 L1685.9,556.9 L1686.4,555.0 L1688.8,551.6 L1694.3,549.4 L1694.9,548.1 L1699.7,546.8 L1703.6,546.7 L1705.3,546.0 L1707.4,546.7 L1705.4,548.2 L1699.6,550.6 L1694.9,552.2 L1691.3,556.3Z"/><path d="M1655.0,545.0 L1657.0,546.5 L1660.4,546.0 L1661.8,548.4 L1655.4,549.5 L1651.5,550.2 L1648.6,550.2 L1650.5,547.0 L1653.5,546.9 L1655.0,545.0Z"/><path d="M1682.8,545.0 L1682.0,548.1 L1673.6,549.6 L1666.2,548.9 L1666.2,546.9 L1670.6,545.8 L1674.1,547.4 L1677.8,547.0 L1682.8,545.0Z"/><path d="M1888.2,546.3 L1888.4,547.4 L1884.1,545.1 L1881.0,543.1 L1879.0,541.2 L1879.8,540.7 L1882.3,542.0 L1886.9,544.6 L1888.2,546.3Z"/><path d="M1875.2,540.8 L1874.1,541.1 L1871.7,539.9 L1869.4,537.6 L1869.7,536.7 L1873.0,539.0 L1875.2,540.8Z"/><path d="M1603.5,537.7 L1614.1,538.2 L1615.3,535.9 L1625.6,538.6 L1627.7,542.2 L1636.0,543.2 L1642.8,546.5 L1636.5,548.6 L1630.4,546.4 L1625.3,546.5 L1619.6,546.1 L1614.4,545.1 L1607.9,543.0 L1603.9,542.5 L1601.5,543.1 L1591.4,540.9 L1590.4,538.5 L1585.4,538.1 L1589.2,532.8 L1595.9,533.1 L1600.4,535.3 L1602.7,535.7 L1603.5,537.7Z"/><path d="M1748.5,534.5 L1745.6,538.3 L1745.1,534.1 L1746.1,532.1 L1747.2,530.3 L1748.5,531.9 L1748.5,534.5Z"/><path d="M1866.0,537.9 L1864.4,538.4 L1862.0,536.3 L1859.6,532.8 L1858.4,528.6 L1859.2,528.0 L1859.8,529.7 L1861.5,530.9 L1864.2,534.4 L1866.8,536.3 L1866.0,537.9Z"/><path d="M1844.3,530.4 L1841.4,530.9 L1840.6,532.4 L1837.5,533.8 L1834.7,535.1 L1831.7,535.1 L1827.2,533.5 L1824.0,531.9 L1824.5,530.2 L1829.4,531.0 L1832.5,530.6 L1833.3,527.9 L1834.1,527.8 L1834.6,530.7 L1837.8,530.3 L1839.4,528.4 L1842.5,526.4 L1841.9,523.2 L1845.2,523.0 L1846.3,524.0 L1846.2,527.0 L1844.3,530.4Z"/><path d="M1706.9,519.2 L1704.9,521.1 L1701.0,520.0 L1699.9,517.7 L1705.6,517.4 L1706.9,519.2Z"/><path d="M1724.8,517.2 L1726.9,521.4 L1722.2,519.1 L1717.5,518.7 L1714.4,519.0 L1710.5,518.9 L1711.9,515.8 L1718.7,515.6 L1724.8,517.2Z"/><path d="M1850.8,525.0 L1849.0,526.5 L1848.0,523.2 L1846.7,521.1 L1844.2,519.2 L1841.0,516.9 L1837.0,515.2 L1838.6,513.9 L1841.6,515.4 L1843.4,516.7 L1845.8,518.0 L1848.0,520.3 L1850.1,522.1 L1850.8,525.0Z"/><path d="M1745.2,506.4 L1746.8,515.4 L1752.5,518.7 L1757.2,512.8 L1763.6,509.5 L1768.5,509.5 L1773.2,511.4 L1777.4,513.4 L1783.3,514.4 L1793.0,518.3 L1803.2,521.5 L1807.1,524.3 L1810.2,527.1 L1811.0,530.4 L1820.3,533.8 L1821.6,536.7 L1816.5,537.3 L1817.7,541.0 L1822.7,544.7 L1826.3,550.6 L1829.5,550.4 L1829.3,552.9 L1833.5,553.8 L1831.9,554.8 L1837.8,557.2 L1837.2,558.8 L1833.5,559.2 L1832.1,557.7 L1827.4,557.1 L1821.7,556.3 L1817.4,552.7 L1814.3,549.7 L1811.4,544.8 L1804.1,542.4 L1799.4,544.0 L1796.0,545.8 L1796.7,549.9 L1792.4,551.8 L1789.3,550.9 L1783.5,550.7 L1778.6,546.1 L1772.9,545.0 L1771.6,546.6 L1764.5,546.7 L1766.9,542.2 L1770.4,540.7 L1768.9,534.6 L1766.3,530.0 L1755.5,525.3 L1750.9,524.8 L1742.6,519.7 L1740.9,522.4 L1738.8,522.8 L1737.5,520.8 L1737.5,518.4 L1733.3,515.7 L1739.3,513.7 L1743.2,513.8 L1742.8,512.3 L1734.6,512.3 L1732.4,509.0 L1727.5,508.0 L1725.1,505.2 L1732.6,503.9 L1735.4,502.1 L1744.4,504.3 L1745.2,506.4Z"/><path d="M1695.8,492.1 L1691.3,497.6 L1687.1,498.7 L1681.8,497.6 L1672.5,497.9 L1667.7,498.7 L1666.9,502.9 L1671.9,507.8 L1674.9,505.3 L1685.2,503.4 L1684.8,506.0 L1682.3,505.2 L1679.9,508.4 L1675.0,510.6 L1680.3,517.7 L1679.3,519.6 L1684.3,526.0 L1684.2,529.7 L1681.3,531.3 L1679.1,529.3 L1681.8,524.8 L1676.3,527.0 L1674.9,525.4 L1675.7,523.3 L1671.7,520.0 L1672.1,514.6 L1668.4,516.3 L1668.8,522.8 L1669.1,530.7 L1665.5,531.5 L1663.1,529.9 L1664.7,524.8 L1663.9,519.4 L1661.5,519.4 L1659.8,515.6 L1662.1,511.9 L1662.9,507.5 L1665.7,499.1 L1666.9,496.9 L1671.6,492.7 L1675.9,494.4 L1682.9,495.1 L1689.3,494.9 L1694.8,490.9 L1695.8,492.1Z"/><path d="M1714.9,493.7 L1714.6,498.6 L1711.8,498.0 L1710.9,501.4 L1713.2,504.3 L1711.7,505.0 L1709.4,501.5 L1707.8,494.4 L1708.9,489.9 L1710.7,487.9 L1711.1,491.0 L1714.4,491.4 L1714.9,493.7Z"/><path d="M1587.9,532.5 L1581.7,532.6 L1577.0,528.0 L1569.9,523.4 L1567.5,520.1 L1563.3,515.6 L1560.6,511.4 L1556.3,503.6 L1551.5,499.0 L1549.8,494.2 L1547.8,489.9 L1542.8,486.4 L1539.9,481.6 L1535.7,478.5 L1529.9,472.4 L1529.4,469.6 L1533.0,469.8 L1541.6,470.9 L1546.5,476.3 L1550.8,480.1 L1553.9,482.4 L1559.1,488.3 L1564.8,488.4 L1569.4,492.2 L1572.6,496.9 L1576.9,499.4 L1574.7,504.0 L1577.8,505.9 L1579.8,506.0 L1580.8,509.9 L1582.7,513.0 L1586.8,513.5 L1589.5,517.0 L1588.1,523.9 L1587.9,532.5Z"/><path d="M1654.9,489.8 L1661.1,495.0 L1654.5,495.6 L1652.7,499.4 L1652.9,504.5 L1647.6,508.3 L1647.4,513.8 L1645.3,522.3 L1644.4,520.3 L1638.1,522.8 L1635.9,519.4 L1632.0,519.1 L1629.2,517.3 L1622.6,519.3 L1620.6,516.6 L1616.9,516.9 L1612.4,516.3 L1611.5,508.8 L1608.7,507.3 L1606.1,502.6 L1605.3,497.7 L1605.9,492.5 L1609.2,488.9 L1613.3,490.8 L1617.6,489.7 L1618.7,485.0 L1621.1,484.0 L1627.8,482.8 L1631.7,478.4 L1634.5,474.9 L1636.7,472.8 L1641.4,469.7 L1645.7,465.9 L1648.5,461.5 L1650.7,461.5 L1653.6,464.3 L1653.8,466.7 L1657.5,468.3 L1662.1,470.0 L1661.7,472.1 L1658.0,472.4 L1659.0,475.1 L1654.9,477.0 L1651.7,482.0 L1655.8,487.3 L1654.9,489.8Z"/><path d="M1702.1,453.3 L1702.7,456.9 L1703.0,460.1 L1701.1,465.1 L1699.1,459.5 L1696.5,462.3 L1698.2,466.4 L1696.6,469.0 L1690.1,465.8 L1688.5,461.7 L1690.2,459.1 L1686.7,456.5 L1685.0,458.8 L1682.4,458.6 L1678.3,461.7 L1677.3,460.0 L1679.5,455.4 L1683.0,453.8 L1686.0,451.7 L1688.0,454.2 L1692.2,452.7 L1693.1,450.2 L1697.1,450.1 L1696.7,445.8 L1701.2,448.4 L1701.7,451.2 L1702.1,453.3Z"/><path d="M1451.2,465.6 L1446.4,466.8 L1443.7,462.4 L1442.8,454.4 L1445.3,445.4 L1449.1,448.5 L1451.7,452.4 L1454.4,458.2 L1453.5,464.0 L1451.2,465.6Z"/><path d="M661.5,443.8 L656.8,444.4 L655.8,443.9 L657.4,442.4 L657.3,440.2 L660.5,439.5 L661.7,439.7 L661.5,443.8Z"/><path d="M1688.8,442.9 L1686.8,444.7 L1685.1,448.2 L1683.3,449.9 L1679.9,446.0 L1681.0,444.5 L1682.4,443.0 L1683.0,439.5 L1686.1,439.2 L1685.2,443.0 L1689.3,437.6 L1688.8,442.9Z"/><path d="M1658.4,448.2 L1651.0,453.5 L1653.7,449.6 L1657.7,446.2 L1661.0,442.4 L1664.0,436.8 L1664.9,441.4 L1661.3,444.4 L1658.4,448.2Z"/><path d="M1677.1,433.9 L1680.5,435.7 L1684.0,435.6 L1683.9,438.0 L1681.3,440.3 L1677.8,442.0 L1677.6,439.4 L1678.0,436.6 L1677.1,433.9Z"/><path d="M1697.2,432.4 L1698.8,438.6 L1694.5,437.2 L1694.6,439.0 L1696.0,442.5 L1693.3,443.7 L1693.1,439.8 L1691.4,439.5 L1690.6,436.1 L1693.8,436.6 L1693.8,434.5 L1690.4,430.2 L1695.7,430.4 L1697.2,432.4Z"/><path d="M1675.2,427.4 L1673.7,432.2 L1671.3,429.4 L1668.5,425.2 L1673.2,425.4 L1675.2,427.4Z"/><path d="M1674.0,397.2 L1677.4,398.8 L1679.1,397.3 L1679.6,398.8 L1678.7,401.1 L1680.6,405.0 L1679.2,409.7 L1675.9,411.5 L1675.0,416.0 L1676.3,420.4 L1679.2,421.0 L1681.7,420.4 L1688.6,423.4 L1688.1,426.5 L1689.9,427.8 L1689.3,430.4 L1685.0,427.6 L1682.9,424.7 L1681.5,426.7 L1678.0,423.4 L1672.9,424.2 L1670.2,423.0 L1670.4,420.7 L1672.2,419.3 L1670.5,418.0 L1669.8,420.0 L1667.1,416.8 L1666.2,414.4 L1666.0,409.1 L1668.3,410.9 L1668.8,402.2 L1670.6,397.2 L1674.0,397.2Z"/><path d="M635.6,398.7 L634.2,400.1 L630.0,400.1 L626.8,400.3 L626.4,397.9 L627.2,397.1 L631.8,397.1 L634.6,397.6 L635.6,398.7Z"/><path d="M572.8,400.7 L571.1,401.7 L568.0,400.8 L564.8,398.7 L565.5,397.5 L567.8,397.1 L569.1,397.3 L572.8,397.8 L575.7,399.1 L576.7,400.6 L572.8,400.7Z"/><path d="M596.8,389.6 L601.6,390.5 L602.3,389.5 L606.6,389.6 L609.9,391.0 L611.4,390.8 L612.4,392.8 L615.4,392.7 L615.3,394.4 L617.7,394.6 L620.5,396.6 L618.4,398.9 L615.8,397.7 L613.2,397.9 L611.4,397.6 L610.4,398.6 L608.2,399.0 L607.4,397.6 L605.6,398.4 L603.3,402.2 L601.9,401.3 L601.6,399.8 L597.9,398.8 L595.3,399.2 L591.9,398.8 L589.3,399.8 L586.3,398.1 L586.8,396.3 L591.9,397.1 L596.1,397.5 L598.1,396.3 L595.6,393.9 L595.6,391.8 L592.1,390.9 L593.4,389.4 L596.8,389.6Z"/><path d="M1613.0,396.2 L1608.2,398.9 L1603.6,397.2 L1603.5,392.4 L1606.2,389.9 L1612.3,388.3 L1615.5,388.5 L1616.7,390.6 L1614.3,393.0 L1613.0,396.2Z"/><path d="M135.9,394.0 L135.1,394.9 L133.7,394.1 L133.8,392.6 L132.9,390.5 L133.2,389.9 L134.2,389.0 L133.8,387.9 L134.1,387.4 L134.5,387.5 L136.7,388.4 L137.6,388.9 L138.5,389.7 L140.0,391.6 L139.8,391.9 L137.7,393.1 L135.9,394.0Z"/><path d="M132.9,385.3 L131.0,385.7 L130.1,384.5 L129.4,384.1 L129.4,383.7 L129.9,383.3 L131.9,383.8 L133.4,384.6 L132.9,385.3Z"/><path d="M129.1,382.4 L128.9,383.0 L126.0,382.8 L126.4,382.1 L129.1,382.4Z"/><path d="M124.2,381.5 L123.8,381.9 L123.5,381.8 L121.5,381.6 L120.8,380.3 L120.6,380.1 L122.1,379.4 L122.5,379.7 L124.2,381.5Z"/><path d="M114.7,377.9 L114.1,378.4 L112.2,377.4 L112.5,377.0 L113.4,376.5 L114.6,376.6 L114.7,377.9Z"/><path d="M557.3,373.5 L559.5,375.6 L564.7,374.9 L566.7,376.2 L571.4,379.7 L574.9,382.2 L576.7,382.1 L580.0,383.2 L579.6,384.8 L583.7,385.0 L587.9,387.3 L587.2,388.6 L583.5,389.3 L579.8,389.6 L576.0,389.2 L568.0,389.7 L571.7,386.6 L569.5,385.1 L565.9,384.8 L564.0,383.2 L562.7,380.0 L559.5,380.2 L554.3,378.7 L552.7,377.6 L545.4,376.7 L543.5,375.6 L545.6,374.2 L540.1,374.0 L536.1,376.8 L533.8,376.9 L533.0,378.3 L530.3,378.9 L527.9,378.4 L530.8,376.6 L532.1,374.6 L534.6,373.4 L537.4,372.3 L541.6,371.8 L543.0,371.2 L547.8,371.6 L552.1,371.6 L557.3,373.5Z"/><path d="M569.3,368.0 L567.9,368.3 L566.5,365.1 L564.4,363.5 L565.6,359.9 L567.3,360.2 L569.2,364.8 L569.3,368.0Z"/><path d="M1673.2,373.4 L1670.8,377.9 L1667.9,373.3 L1667.3,369.1 L1670.5,363.7 L1675.0,359.5 L1677.5,361.1 L1676.5,364.5 L1673.2,373.4Z"/><path d="M567.7,352.3 L561.6,353.2 L561.2,351.2 L563.8,350.7 L567.5,350.9 L567.7,352.3Z"/><path d="M572.2,352.3 L571.3,356.2 L570.2,355.5 L570.3,352.6 L567.8,350.4 L567.8,349.8 L572.2,352.3Z"/><path d="M1748.0,310.3 L1748.7,312.2 L1745.6,315.5 L1743.3,313.8 L1740.4,315.1 L1739.0,318.3 L1735.4,316.7 L1735.4,314.1 L1738.5,310.8 L1741.6,311.4 L1743.9,309.1 L1748.0,310.3Z"/><path d="M1192.1,301.8 L1188.3,304.2 L1188.7,305.2 L1188.9,305.7 L1183.2,307.9 L1180.5,307.2 L1179.2,305.0 L1181.8,304.8 L1182.2,304.7 L1183.0,303.4 L1187.0,303.5 L1192.1,301.8Z"/><path d="M1131.7,301.6 L1134.7,303.5 L1139.0,303.2 L1143.2,303.6 L1143.0,304.6 L1146.1,303.9 L1145.4,305.5 L1137.4,306.0 L1137.4,305.1 L1130.6,304.0 L1131.7,301.6Z"/><path d="M1086.2,287.6 L1084.2,292.0 L1085.1,293.7 L1083.9,296.6 L1079.6,294.5 L1076.8,293.9 L1069.1,291.0 L1069.8,288.2 L1076.3,288.7 L1082.0,288.1 L1086.2,287.6Z"/><path d="M1051.2,271.1 L1054.5,275.0 L1053.7,282.3 L1051.2,282.0 L1048.9,283.9 L1046.8,282.4 L1046.6,275.7 L1045.3,272.5 L1048.4,272.8 L1051.2,271.1Z"/><path d="M1783.2,293.7 L1781.1,298.1 L1782.1,300.9 L1779.2,304.8 L1772.1,307.4 L1762.3,307.7 L1754.4,314.1 L1750.7,311.9 L1750.4,307.8 L1740.8,309.0 L1734.2,311.6 L1727.7,311.7 L1733.3,315.8 L1729.6,325.3 L1726.0,327.6 L1723.3,325.5 L1724.7,320.4 L1721.2,318.8 L1718.9,315.0 L1724.2,313.3 L1727.1,309.8 L1732.7,306.9 L1736.8,303.1 L1747.8,301.5 L1753.8,302.6 L1759.6,292.8 L1763.3,295.4 L1771.4,289.8 L1774.6,287.7 L1778.1,280.9 L1777.1,274.6 L1779.5,271.1 L1785.4,270.1 L1788.4,277.8 L1788.2,282.3 L1783.1,287.9 L1783.2,293.7Z"/><path d="M1053.1,265.8 L1051.3,270.1 L1048.8,269.0 L1047.5,265.2 L1048.6,263.2 L1052.2,261.1 L1053.1,265.8Z"/><path d="M1799.5,254.6 L1803.4,255.8 L1807.3,253.4 L1808.6,259.7 L1800.3,261.2 L1795.5,266.7 L1786.7,262.9 L1783.7,269.0 L1777.5,269.1 L1776.8,263.5 L1779.5,259.3 L1785.4,259.0 L1787.1,251.3 L1788.7,246.9 L1795.2,252.7 L1799.5,254.6Z"/><path d="M646.3,241.4 L650.3,242.1 L655.5,242.0 L652.8,244.3 L650.7,244.6 L643.7,242.3 L642.3,240.4 L644.4,238.7 L646.3,241.4Z"/><path d="M656.6,227.2 L653.9,227.3 L646.7,225.6 L641.6,222.9 L643.5,222.5 L650.8,223.9 L656.5,226.2 L656.6,227.2Z"/><path d="M313.8,230.5 L311.0,231.3 L301.9,228.7 L300.3,226.8 L295.3,224.8 L294.3,223.3 L288.6,222.3 L286.4,219.2 L286.9,217.9 L292.7,219.2 L296.1,220.0 L301.4,220.6 L303.2,222.5 L306.0,225.1 L311.5,227.4 L313.8,230.5Z"/><path d="M688.1,218.4 L684.5,223.3 L688.1,221.4 L691.8,222.6 L689.9,224.5 L694.8,226.0 L697.4,224.7 L702.9,226.4 L701.2,230.5 L705.1,229.5 L705.8,232.5 L707.5,235.9 L705.2,240.8 L702.7,241.0 L699.0,240.0 L700.2,235.4 L698.7,234.7 L692.2,239.5 L688.9,239.3 L692.8,236.7 L687.5,235.4 L681.5,235.7 L670.7,235.5 L669.9,233.9 L673.4,231.9 L670.9,230.4 L675.6,227.1 L681.3,218.2 L684.8,215.1 L689.6,213.2 L692.2,213.4 L691.1,214.9 L688.1,218.4Z"/><path d="M262.7,199.8 L262.7,199.8 L262.7,199.8 L262.7,199.8 L268.1,199.3 L266.4,205.6 L271.2,210.1 L269.0,210.1 L265.7,207.6 L263.6,205.0 L260.8,203.3 L259.8,200.8 L260.1,199.1 L262.7,199.8Z"/><path d="M1798.0,218.1 L1803.6,227.9 L1795.4,226.1 L1792.0,234.1 L1797.4,239.8 L1797.3,243.7 L1793.0,240.3 L1789.4,244.6 L1788.4,240.0 L1789.0,234.6 L1788.4,228.6 L1789.6,224.4 L1789.9,216.9 L1786.6,211.5 L1787.1,203.9 L1792.3,201.3 L1790.1,198.7 L1792.5,198.0 L1794.0,201.6 L1795.9,207.0 L1795.8,212.5 L1798.0,218.1Z"/><path d="M962.3,209.7 L952.4,212.9 L944.6,212.1 L949.1,206.3 L946.2,200.7 L953.7,196.3 L957.9,193.7 L962.6,193.5 L968.5,196.9 L965.6,200.7 L966.5,204.7 L962.3,209.7Z"/><path d="M1070.5,191.1 L1067.2,195.6 L1061.4,192.4 L1060.6,190.1 L1068.7,188.3 L1070.5,191.1Z"/><path d="M150.0,182.7 L144.4,184.8 L141.6,183.4 L140.7,180.8 L145.8,178.8 L148.7,178.0 L152.4,178.3 L154.8,180.0 L150.0,182.7Z"/><path d="M983.3,174.3 L977.4,180.3 L983.0,179.5 L989.1,179.5 L987.7,184.1 L982.7,189.0 L988.4,189.4 L993.8,196.5 L997.6,197.4 L1001.0,203.7 L1002.6,205.9 L1009.3,207.0 L1008.7,210.6 L1005.8,212.2 L1008.1,215.1 L1003.1,218.0 L995.6,217.9 L986.2,219.4 L983.6,218.4 L979.9,221.0 L974.8,220.3 L970.9,222.4 L967.9,221.3 L976.1,215.5 L981.0,214.3 L972.3,213.4 L970.7,211.2 L976.5,209.4 L973.5,206.4 L974.6,202.8 L982.8,203.3 L983.6,200.1 L979.8,196.6 L973.1,195.6 L971.8,194.1 L973.8,191.6 L972.0,190.1 L969.0,192.7 L968.6,187.4 L965.8,184.5 L967.9,178.8 L972.2,174.3 L976.6,174.7 L983.3,174.3Z"/><path d="M80.1,167.2 L76.7,168.0 L73.1,167.0 L69.7,165.5 L75.2,164.5 L79.6,165.0 L80.1,167.2Z"/><path d="M559.6,154.7 L557.5,157.6 L555.0,157.1 L553.5,155.5 L553.8,155.1 L555.9,153.4 L558.2,153.5 L559.6,154.7Z"/><path d="M545.0,151.6 L538.5,154.7 L534.6,154.5 L533.4,153.0 L537.5,150.5 L545.1,150.5 L545.0,151.6Z"/><path d="M45.9,145.7 L49.4,146.7 L52.8,146.1 L57.3,147.6 L62.8,148.3 L62.4,149.0 L58.2,150.1 L53.9,148.9 L51.8,147.9 L46.9,148.2 L45.6,147.7 L45.9,145.7Z"/><path d="M526.9,135.2 L527.9,137.7 L530.8,136.8 L534.0,138.3 L540.1,140.2 L546.4,141.9 L546.9,144.6 L551.0,144.1 L555.0,146.0 L550.0,147.7 L541.4,146.4 L538.3,143.9 L532.8,146.8 L524.9,149.7 L523.0,146.5 L515.4,147.0 L520.3,144.2 L521.0,139.9 L522.9,134.8 L526.9,135.2Z"/><path d="M919.4,130.8 L918.1,134.4 L924.4,138.2 L917.2,142.4 L901.1,146.2 L896.4,147.2 L889.0,146.4 L873.5,144.7 L879.0,142.2 L866.9,139.5 L876.8,138.4 L876.5,136.8 L864.9,135.5 L868.6,131.9 L877.0,131.1 L885.7,134.8 L894.1,131.8 L901.1,133.4 L910.2,130.4 L919.4,130.8Z"/><path d="M578.5,127.0 L572.3,127.2 L570.9,124.5 L573.3,121.4 L578.4,120.6 L582.7,122.2 L582.8,124.5 L582.1,125.3 L578.5,127.0Z"/><path d="M27.7,130.1 L31.4,131.5 L30.2,127.4 L45.2,128.3 L56.1,133.5 L50.6,135.9 L41.5,136.5 L41.4,141.9 L39.1,143.0 L33.9,142.9 L29.7,140.9 L22.3,139.3 L21.1,136.9 L15.4,136.0 L9.1,136.7 L6.1,134.8 L7.3,132.7 L0.6,134.0 L3.2,136.6 L0.0,139.0 L0.0,116.9 L13.6,121.1 L28.2,126.6 L27.7,130.1Z"/><path d="M468.6,116.1 L465.2,118.0 L457.7,116.3 L453.2,116.9 L445.6,114.4 L450.5,112.7 L454.3,110.3 L460.2,111.9 L463.6,112.9 L465.2,113.9 L468.6,116.1Z"/><path d="M2000.0,106.5 L1993.9,106.8 L1992.9,105.0 L2000.0,102.7 L2000.0,106.5Z"/><path d="M7.3,106.1 L0.0,106.5 L0.0,102.7 L0.7,102.5 L5.4,102.5 L13.5,104.1 L13.0,104.8 L7.3,106.1Z"/><path d="M497.0,113.9 L496.9,119.6 L504.4,115.2 L511.0,118.8 L509.3,122.9 L514.7,126.7 L520.5,122.7 L524.6,117.9 L524.9,111.8 L532.8,112.2 L541.0,113.0 L548.4,115.8 L548.8,118.5 L544.6,121.5 L548.6,124.5 L547.9,127.2 L537.0,131.0 L529.2,131.9 L523.5,130.2 L521.8,133.0 L516.5,137.7 L514.9,140.1 L508.4,143.9 L500.5,144.3 L496.1,146.6 L495.7,150.2 L489.3,150.9 L482.5,155.4 L476.4,161.7 L474.3,166.1 L474.0,172.5 L482.1,173.4 L484.6,178.6 L487.2,182.8 L495.0,181.8 L505.3,184.2 L510.9,186.3 L514.9,188.9 L521.8,190.4 L527.7,192.8 L536.9,193.1 L542.9,193.6 L542.0,198.4 L543.8,204.0 L547.8,210.2 L556.0,215.5 L560.3,213.7 L563.3,208.0 L560.4,199.2 L556.5,196.3 L565.4,193.7 L571.7,189.8 L574.8,185.9 L574.3,182.2 L570.5,177.5 L563.8,173.3 L570.4,167.5 L567.9,162.5 L566.1,153.8 L569.9,152.5 L579.5,154.0 L585.2,154.5 L589.8,153.1 L595.0,155.0 L601.8,158.2 L603.5,160.3 L613.4,160.8 L613.2,165.4 L615.1,172.5 L620.1,173.3 L624.2,176.6 L632.2,173.5 L637.5,167.4 L641.2,164.8 L645.5,169.8 L652.8,176.8 L658.9,183.5 L656.7,187.0 L664.1,190.1 L669.1,193.3 L677.9,194.7 L681.5,196.5 L683.7,201.2 L688.0,202.0 L690.2,204.1 L690.6,210.3 L686.6,212.4 L682.6,214.3 L673.5,216.3 L666.5,220.9 L657.1,221.8 L645.2,220.6 L636.9,220.6 L631.1,221.0 L626.5,224.9 L619.4,227.4 L611.4,234.8 L605.0,239.9 L609.7,239.0 L618.6,231.7 L630.3,227.0 L638.6,226.5 L643.5,229.2 L638.2,232.9 L640.0,238.9 L641.8,243.1 L649.0,245.9 L658.2,245.1 L663.8,238.8 L664.2,242.9 L667.8,244.9 L660.9,248.5 L648.6,251.8 L643.1,254.1 L636.9,258.1 L632.6,257.7 L632.4,253.0 L642.1,248.4 L633.2,248.6 L627.0,249.2 L628.0,251.1 L622.0,253.7 L616.3,255.7 L610.5,257.3 L607.3,260.9 L606.6,261.9 L606.5,264.8 L608.4,267.7 L610.7,267.9 L610.1,265.9 L611.8,267.1 L611.3,268.7 L607.6,269.6 L604.9,269.5 L600.8,270.4 L598.4,270.7 L595.1,271.0 L590.5,272.6 L598.7,271.6 L600.3,272.6 L592.5,274.3 L589.0,274.3 L589.2,273.6 L587.5,275.1 L589.1,275.4 L587.9,279.4 L583.9,283.7 L583.4,282.2 L582.2,282.0 L580.4,280.6 L581.6,283.6 L582.9,284.5 L583.0,286.6 L581.2,288.8 L578.1,293.2 L577.6,293.0 L579.3,289.2 L576.5,287.1 L575.8,282.5 L574.8,284.9 L575.9,288.4 L572.4,287.6 L576.1,289.3 L576.3,294.6 L577.9,295.0 L578.5,296.9 L579.3,302.5 L575.8,306.6 L570.0,308.3 L566.4,311.5 L563.6,311.9 L560.8,313.9 L560.0,315.8 L553.9,319.4 L550.8,322.0 L548.1,325.3 L547.3,329.3 L548.3,333.1 L550.1,337.9 L552.6,341.8 L552.6,344.2 L555.2,350.7 L555.1,354.4 L554.8,356.6 L553.4,360.0 L551.8,360.7 L549.0,360.0 L548.2,357.6 L546.1,356.3 L543.1,351.5 L540.5,347.2 L539.7,345.1 L540.8,341.4 L539.3,338.3 L534.9,333.7 L532.8,332.8 L527.2,335.4 L526.2,335.1 L523.5,332.5 L520.0,331.1 L513.7,331.8 L508.8,331.2 L504.6,331.6 L502.2,332.4 L503.3,333.9 L503.2,336.2 L504.3,337.3 L503.3,338.0 L501.2,337.2 L499.1,338.2 L495.1,338.1 L491.0,335.1 L486.1,335.8 L482.1,334.5 L478.6,334.9 L473.9,336.2 L468.9,340.3 L463.4,342.7 L460.3,345.4 L459.1,347.9 L459.0,351.7 L459.3,354.4 L460.3,356.3 L460.3,356.3 L460.3,356.3 L458.2,361.2 L457.2,365.2 L456.8,372.6 L456.3,375.3 L457.2,378.3 L459.0,381.0 L460.1,385.4 L463.7,389.5 L465.0,392.7 L467.2,395.4 L473.1,396.9 L475.4,399.2 L480.3,397.6 L484.5,397.1 L488.7,396.1 L492.2,395.1 L495.7,392.9 L497.0,389.6 L497.5,385.0 L498.5,383.3 L502.2,381.9 L508.1,380.6 L513.0,380.8 L516.4,380.3 L517.7,381.5 L517.5,384.2 L514.5,387.5 L513.2,390.9 L514.2,391.8 L513.4,394.2 L512.0,398.6 L510.6,397.1 L509.4,397.2 L509.5,398.0 L510.5,398.1 L510.4,399.6 L509.5,402.0 L510.0,402.8 L509.4,404.8 L509.8,405.4 L509.1,408.2 L508.0,409.6 L507.0,409.8 L505.9,411.7 L507.8,412.7 L508.2,411.9 L509.9,412.6 L510.4,412.8 L511.7,411.9 L513.2,411.8 L513.8,412.2 L514.6,412.0 L517.2,412.5 L519.8,412.3 L521.6,411.7 L522.2,411.1 L524.0,411.4 L525.3,411.7 L526.8,411.6 L527.9,411.1 L530.4,411.9 L531.3,412.0 L533.0,413.1 L534.6,414.3 L536.6,415.2 L538.1,416.7 L537.6,417.2 L537.3,418.5 L537.9,420.5 L536.6,422.4 L536.0,424.6 L535.8,427.1 L536.1,428.5 L536.3,431.0 L535.4,431.6 L534.9,433.9 L535.3,435.4 L534.1,436.8 L534.4,438.3 L535.2,439.2 L536.7,442.2 L538.8,444.5 L541.4,446.9 L543.4,448.8 L543.3,450.0 L545.5,450.3 L546.0,449.8 L547.6,451.2 L550.3,450.8 L552.7,449.4 L556.0,448.3 L557.9,446.6 L561.0,446.9 L560.8,447.5 L563.9,447.7 L566.4,448.6 L568.2,450.3 L570.3,451.8 L573.1,452.0 L577.3,448.1 L579.6,447.5 L579.6,445.7 L580.7,441.0 L583.9,438.4 L587.4,438.3 L587.8,437.2 L592.1,437.6 L596.5,434.8 L598.7,433.6 L601.4,430.9 L603.3,431.2 L604.8,432.7 L603.7,434.6 L603.6,435.9 L600.3,436.5 L602.1,439.1 L602.0,442.0 L599.6,445.2 L601.7,449.6 L604.1,449.2 L605.3,445.2 L603.6,443.3 L603.3,439.1 L610.2,436.8 L609.5,434.2 L611.4,432.4 L613.4,436.3 L617.3,436.4 L620.9,439.5 L621.1,441.4 L626.1,441.4 L632.1,440.8 L635.2,443.3 L639.5,444.0 L642.6,442.3 L642.7,440.9 L649.6,440.5 L656.2,440.5 L651.5,442.1 L653.4,444.7 L657.8,445.1 L662.1,447.9 L662.9,452.3 L665.8,452.2 L668.0,453.5 L671.7,455.6 L675.1,459.2 L675.3,462.0 L677.3,462.2 L680.3,464.9 L682.5,466.8 L689.2,467.9 L689.8,466.9 L694.3,466.5 L700.2,468.0 L702.1,468.6 L706.2,469.9 L712.1,474.6 L713.0,476.9 L714.9,476.6 L716.3,479.7 L719.4,489.4 L722.4,490.4 L722.5,494.2 L718.3,498.8 L720.1,500.4 L729.9,501.3 L730.1,506.9 L734.3,503.2 L741.3,505.2 L750.5,508.6 L753.2,511.9 L752.3,515.0 L758.8,513.2 L769.6,516.2 L777.9,516.0 L786.1,520.6 L793.2,526.8 L797.5,528.4 L802.2,528.6 L804.2,530.4 L806.1,537.4 L807.1,540.8 L804.8,550.0 L802.0,553.6 L794.2,561.3 L790.6,567.6 L786.5,572.4 L785.1,572.5 L783.6,576.6 L784.0,587.0 L782.4,595.6 L781.8,599.3 L780.1,601.5 L779.1,608.9 L773.5,616.1 L772.5,621.9 L768.0,624.3 L766.7,627.6 L760.7,627.6 L752.0,629.7 L748.0,632.2 L741.8,633.8 L735.3,638.3 L730.6,643.8 L729.8,647.9 L730.7,651.0 L729.7,656.6 L728.4,659.3 L724.5,662.4 L718.4,672.1 L713.5,676.5 L709.7,679.1 L707.2,684.4 L703.5,687.6 L701.1,691.1 L694.8,694.2 L690.7,693.1 L687.7,693.7 L682.6,691.3 L678.8,691.5 L675.4,688.4 L675.0,691.3 L682.1,696.0 L681.3,699.9 L684.8,702.3 L684.5,705.0 L679.2,712.1 L670.9,715.1 L659.8,716.3 L653.7,715.7 L654.9,719.0 L653.7,723.2 L654.7,726.0 L651.4,727.9 L645.7,728.7 L640.4,726.7 L638.2,728.1 L639.0,733.7 L642.8,735.3 L645.8,733.6 L647.5,736.5 L642.3,738.2 L637.9,741.6 L637.1,747.2 L635.7,750.2 L630.5,750.2 L626.1,753.1 L624.6,757.2 L630.0,761.3 L635.3,762.4 L633.4,767.4 L626.9,770.5 L623.2,777.1 L618.2,779.2 L615.9,781.8 L617.7,787.6 L621.4,790.8 L619.0,790.6 L614.1,790.5 L611.4,791.9 L606.4,793.9 L605.5,799.1 L603.2,799.2 L596.9,797.4 L590.5,793.5 L583.6,790.3 L581.9,786.8 L583.5,783.6 L580.7,779.9 L580.0,770.4 L582.3,765.1 L588.2,760.8 L579.8,759.2 L585.0,754.2 L586.9,745.0 L593.1,747.0 L596.0,735.5 L592.3,734.0 L590.5,740.9 L587.0,740.1 L588.8,732.2 L590.7,721.9 L593.2,718.1 L591.6,712.7 L591.2,706.4 L593.5,706.2 L596.9,697.3 L600.8,688.4 L603.1,680.1 L601.8,671.8 L603.5,667.2 L602.8,660.3 L606.1,653.6 L607.1,642.8 L608.9,631.3 L610.6,618.9 L610.2,609.8 L609.0,601.9 L603.5,598.7 L603.0,596.5 L592.0,590.9 L582.0,584.8 L577.7,581.4 L575.4,576.8 L576.3,575.2 L571.6,567.9 L566.2,557.7 L560.9,546.6 L558.6,544.1 L556.9,540.0 L552.6,536.3 L548.6,534.1 L550.4,531.6 L547.7,526.3 L549.4,522.4 L553.9,518.9 L556.8,514.8 L555.6,512.3 L553.5,514.9 L550.2,512.5 L551.3,510.9 L550.4,505.9 L552.3,505.0 L553.3,501.6 L555.4,498.0 L555.1,495.7 L558.1,494.5 L561.9,492.3 L561.2,490.6 L563.2,490.2 L563.0,487.4 L564.3,485.4 L567.0,485.0 L569.4,481.5 L571.5,478.6 L569.5,477.3 L570.5,474.1 L569.3,469.0 L570.5,467.5 L569.6,462.8 L567.3,459.9 L565.5,458.3 L564.3,455.3 L565.7,453.8 L564.2,453.4 L563.2,451.6 L560.4,450.0 L558.0,450.4 L556.9,452.3 L554.6,453.7 L553.4,453.9 L552.9,455.1 L555.5,458.1 L554.0,458.8 L553.2,459.6 L550.6,459.9 L549.7,456.6 L548.9,457.5 L547.1,457.2 L546.0,455.0 L543.7,454.6 L542.3,453.9 L539.9,453.9 L539.7,455.1 L539.1,454.3 L536.1,453.1 L534.9,451.9 L535.6,450.9 L535.4,449.7 L533.8,448.4 L531.6,447.3 L529.7,446.6 L529.4,445.0 L527.9,444.0 L528.3,445.6 L527.2,446.9 L525.9,445.4 L524.1,444.8 L523.3,443.7 L523.4,442.0 L524.1,440.3 L522.5,439.5 L523.8,438.4 L521.9,436.6 L519.3,434.4 L518.1,432.5 L515.7,430.8 L513.0,428.3 L513.6,427.4 L514.5,428.3 L514.9,427.9 L513.9,426.1 L512.3,425.6 L511.6,426.9 L508.4,426.9 L506.4,426.3 L504.1,425.2 L501.0,424.9 L499.5,423.7 L496.6,422.7 L493.2,422.6 L490.6,421.5 L487.6,419.2 L481.3,413.2 L478.5,411.4 L473.9,410.0 L470.8,410.4 L466.4,412.5 L463.6,413.0 L459.6,411.6 L455.5,410.5 L450.3,408.0 L446.1,407.2 L439.8,404.6 L435.2,401.9 L433.8,400.5 L430.7,400.1 L425.0,398.4 L422.7,395.8 L416.7,392.7 L413.9,389.2 L412.6,386.5 L414.5,385.9 L413.9,384.4 L415.2,382.9 L415.2,381.0 L413.3,378.5 L412.8,376.3 L411.0,373.5 L406.1,368.0 L400.5,363.6 L397.8,360.2 L393.0,357.9 L392.0,356.5 L392.8,353.1 L390.0,351.8 L386.7,349.1 L385.3,345.2 L382.3,344.8 L379.1,341.8 L376.5,339.1 L376.3,337.4 L373.3,333.2 L371.3,329.0 L371.4,326.8 L367.4,324.6 L365.5,324.9 L362.4,323.3 L361.5,325.6 L362.4,328.3 L362.9,332.4 L364.8,334.7 L369.0,338.5 L369.9,339.9 L370.7,340.3 L371.4,342.2 L372.4,342.1 L373.5,345.7 L375.2,347.1 L376.4,349.0 L379.9,351.9 L381.8,357.0 L383.4,359.5 L384.9,362.1 L385.2,365.0 L387.9,365.2 L390.2,367.7 L392.2,370.2 L392.0,371.2 L389.7,373.2 L388.7,373.2 L387.3,369.8 L383.6,366.7 L379.6,364.0 L376.8,362.6 L377.0,358.5 L376.1,355.5 L373.5,353.8 L369.6,351.3 L368.9,352.0 L367.5,350.6 L364.1,349.2 L360.8,346.0 L361.2,345.6 L363.5,345.9 L365.6,343.8 L365.8,341.3 L361.5,337.3 L358.2,335.8 L356.2,332.3 L354.1,328.7 L351.5,324.2 L349.3,319.2 L348.4,316.4 L344.8,313.2 L342.2,312.6 L341.6,311.0 L338.4,310.7 L336.5,309.2 L331.3,308.6 L329.9,307.7 L329.2,304.7 L323.8,299.1 L319.2,291.4 L319.4,290.1 L316.9,288.3 L312.6,283.6 L311.9,279.1 L308.9,276.0 L310.1,271.4 L309.9,266.7 L308.2,262.4 L310.3,257.2 L311.7,247.1 L310.7,239.6 L308.9,234.9 L307.3,232.3 L308.0,231.2 L316.0,233.1 L319.0,238.4 L320.3,236.9 L319.4,232.3 L317.6,227.8 L316.8,227.8 L306.1,222.3 L302.1,219.9 L292.0,217.6 L288.9,212.7 L289.7,209.3 L282.6,206.9 L281.6,202.4 L274.9,198.4 L274.8,195.5 L271.7,193.5 L266.8,191.7 L265.3,186.8 L258.1,182.3 L255.1,177.1 L249.8,176.7 L241.0,176.6 L234.4,175.0 L223.0,169.2 L217.6,168.2 L207.9,166.2 L200.2,166.7 L189.3,164.1 L182.7,161.8 L176.5,162.9 L177.7,166.8 L174.6,167.1 L168.2,168.3 L163.3,170.2 L157.1,171.4 L156.3,168.1 L158.8,162.6 L164.7,160.9 L163.2,159.5 L156.1,162.6 L152.3,166.3 L144.3,170.3 L148.4,173.0 L143.2,177.0 L137.2,179.3 L131.6,181.0 L130.2,183.4 L121.6,186.3 L119.8,188.9 L113.3,191.3 L109.5,190.9 L104.3,192.4 L98.7,194.3 L94.1,196.2 L84.5,197.8 L83.7,196.8 L89.7,194.2 L95.2,192.5 L101.1,189.5 L108.0,188.8 L110.7,186.6 L118.4,183.2 L119.7,182.1 L123.8,180.2 L124.7,176.0 L127.5,172.7 L121.1,174.4 L119.3,173.4 L116.3,175.4 L112.7,172.6 L111.2,174.6 L109.1,171.8 L103.6,174.1 L100.2,174.0 L99.7,170.7 L100.7,168.7 L97.1,166.7 L89.9,167.8 L85.2,165.2 L81.4,163.8 L81.4,160.7 L77.1,158.3 L79.3,155.1 L83.8,152.0 L85.8,149.2 L90.3,148.8 L94.1,149.7 L98.6,147.0 L102.6,147.5 L106.8,145.7 L105.8,143.2 L102.7,142.2 L106.8,140.1 L103.4,140.1 L97.5,141.3 L95.8,142.6 L91.4,141.3 L83.6,142.0 L75.4,140.6 L73.1,138.4 L66.1,135.2 L73.9,132.8 L86.3,130.1 L90.8,130.1 L90.1,132.9 L101.8,132.7 L97.3,129.2 L90.4,127.1 L86.5,124.4 L81.2,122.0 L73.5,120.2 L76.6,117.3 L86.5,117.1 L93.5,114.6 L94.8,111.9 L100.5,109.3 L105.9,108.6 L116.4,106.2 L121.6,106.5 L130.1,103.6 L138.5,104.7 L142.5,107.2 L145.0,106.2 L154.4,106.5 L154.1,107.8 L162.6,108.7 L168.2,108.2 L179.9,109.9 L190.6,110.4 L194.9,111.2 L202.3,110.3 L210.7,111.9 L216.7,112.7 L227.1,114.0 L235.9,116.7 L241.6,117.2 L246.5,114.9 L253.3,113.2 L261.5,113.9 L269.8,111.4 L278.9,110.0 L282.7,112.3 L286.9,111.0 L288.1,108.4 L292.0,109.0 L301.4,114.0 L308.8,110.2 L309.5,114.4 L316.3,113.5 L318.4,111.9 L325.2,112.2 L333.7,114.6 L346.7,116.6 L354.3,117.5 L359.7,117.2 L367.2,120.0 L359.4,122.8 L369.5,124.0 L384.5,123.3 L389.2,122.3 L395.1,125.7 L401.2,122.8 L395.5,120.5 L399.1,118.6 L405.8,118.3 L410.3,117.8 L414.8,119.1 L420.3,122.1 L426.5,121.7 L436.4,124.2 L445.0,123.3 L453.1,123.4 L452.5,120.0 L457.4,119.0 L466.0,120.9 L466.0,126.1 L469.5,121.7 L474.0,121.9 L476.5,116.3 L470.5,112.9 L464.0,110.6 L464.5,104.5 L471.1,100.4 L478.4,101.3 L484.0,103.8 L491.6,110.0 L486.6,112.8 L497.0,113.9Z"/><path d="M365.7,93.8 L363.0,96.4 L375.3,94.7 L383.1,97.5 L389.3,94.7 L394.4,96.5 L399.0,101.9 L401.7,99.6 L397.8,93.9 L402.7,93.1 L408.2,94.0 L414.4,96.3 L417.9,101.7 L419.6,105.6 L429.0,108.3 L439.0,111.0 L438.4,113.4 L429.3,113.9 L432.8,116.0 L430.9,118.0 L420.9,117.2 L411.3,115.7 L404.9,116.0 L394.4,117.9 L378.0,118.9 L370.5,119.2 L367.5,116.6 L359.9,115.1 L355.0,115.7 L348.1,111.3 L351.8,110.7 L360.4,109.8 L368.2,110.0 L375.5,109.1 L364.7,107.8 L352.9,108.2 L345.0,108.1 L342.0,106.1 L354.9,103.8 L346.4,103.9 L336.7,102.5 L341.3,98.3 L345.2,96.1 L360.1,92.7 L365.7,93.8Z"/><path d="M419.4,92.1 L414.6,95.8 L405.9,91.9 L407.8,91.1 L415.2,90.9 L419.4,92.1Z"/><path d="M575.9,93.9 L576.4,95.4 L570.5,95.2 L564.5,95.1 L558.4,95.9 L556.8,95.5 L550.7,92.6 L550.9,90.6 L553.6,90.2 L566.3,90.8 L575.9,93.9Z"/><path d="M519.1,93.6 L523.5,97.0 L528.6,92.6 L542.7,90.3 L552.2,96.0 L551.4,99.7 L562.4,98.0 L567.6,95.8 L580.0,98.6 L587.6,101.3 L588.3,103.7 L598.7,102.5 L604.4,106.0 L617.9,108.2 L622.7,110.4 L627.9,115.6 L617.7,118.2 L630.8,121.8 L639.7,123.1 L647.6,128.2 L656.4,128.5 L654.6,132.4 L644.9,138.9 L638.1,136.5 L629.3,131.2 L622.1,131.9 L621.4,135.1 L627.3,138.3 L634.8,140.8 L637.1,142.3 L640.7,147.8 L638.8,151.8 L631.8,150.3 L617.9,145.9 L625.7,150.6 L631.5,154.0 L632.4,155.9 L617.3,153.7 L605.4,150.5 L598.7,147.8 L600.6,146.2 L592.3,143.4 L584.3,140.7 L584.3,142.3 L568.3,143.2 L563.6,141.3 L567.2,137.2 L577.7,137.1 L589.1,136.4 L587.3,134.4 L589.2,131.6 L596.4,126.2 L594.9,123.7 L592.7,121.8 L584.2,119.1 L572.9,117.3 L576.5,115.8 L570.6,112.4 L565.7,112.1 L561.3,110.2 L558.4,111.8 L548.3,112.5 L528.1,111.3 L516.3,109.7 L507.3,108.8 L502.7,106.9 L508.5,104.3 L500.6,104.3 L498.9,98.7 L503.1,93.7 L508.8,91.5 L523.2,90.0 L519.1,93.6Z"/><path d="M442.5,89.8 L449.1,90.9 L459.0,90.2 L460.4,91.8 L455.3,94.5 L463.7,96.9 L462.7,101.9 L453.6,104.0 L448.2,103.6 L444.4,101.5 L430.6,97.2 L430.7,95.4 L442.0,96.1 L435.9,92.4 L442.5,89.8Z"/><path d="M1797.8,93.3 L1789.4,93.3 L1778.0,92.7 L1777.0,92.4 L1782.3,90.2 L1789.2,89.7 L1797.1,91.8 L1797.8,93.3Z"/><path d="M482.2,95.7 L476.3,99.9 L469.9,99.7 L466.5,94.8 L466.6,92.0 L469.5,89.7 L475.0,88.1 L486.6,88.3 L497.2,89.7 L488.9,94.6 L482.2,95.7Z"/><path d="M330.8,103.3 L316.2,106.1 L313.2,103.7 L300.4,100.7 L302.3,98.9 L306.6,94.3 L311.4,90.7 L306.0,87.3 L324.8,86.4 L332.7,87.5 L346.9,87.9 L352.3,89.5 L358.3,91.8 L351.3,93.2 L337.7,97.1 L330.8,101.0 L330.8,103.3Z"/><path d="M1837.4,82.9 L1831.0,85.1 L1822.1,84.6 L1811.8,82.4 L1813.1,80.6 L1823.5,81.4 L1837.4,82.9Z"/><path d="M479.9,83.4 L476.9,85.6 L468.8,85.2 L462.1,83.7 L465.1,81.2 L473.1,79.7 L477.9,81.7 L479.9,83.4Z"/><path d="M1806.0,80.2 L1801.7,84.3 L1781.2,84.2 L1772.0,85.5 L1761.0,81.9 L1764.0,78.1 L1771.3,77.0 L1786.0,77.3 L1806.0,80.2Z"/><path d="M452.8,73.8 L457.0,76.4 L457.2,79.2 L454.7,83.3 L445.5,83.9 L439.5,83.0 L439.7,79.8 L430.5,80.2 L430.2,75.9 L436.2,76.1 L444.5,74.2 L452.4,74.5 L452.8,73.8Z"/><path d="M398.8,76.7 L401.0,78.6 L406.0,77.7 L411.8,77.9 L412.8,80.7 L409.4,83.3 L390.6,84.2 L376.5,86.6 L368.1,86.7 L367.4,84.9 L378.9,82.4 L353.8,83.1 L346.1,82.1 L353.6,76.7 L358.9,75.1 L374.5,77.0 L384.4,80.3 L394.1,80.7 L386.1,75.4 L391.2,73.4 L397.0,74.0 L398.8,76.7Z"/><path d="M1319.6,107.1 L1316.4,107.6 L1298.2,106.9 L1296.7,104.4 L1286.7,102.9 L1285.9,99.9 L1291.5,98.7 L1291.4,95.7 L1302.4,91.0 L1297.3,90.3 L1310.6,85.4 L1309.1,82.9 L1321.5,79.9 L1339.8,76.4 L1358.3,75.3 L1367.8,73.3 L1378.7,72.6 L1382.5,74.8 L1378.8,76.5 L1359.1,79.2 L1342.1,81.9 L1324.9,87.2 L1316.6,92.6 L1307.9,97.9 L1309.0,102.6 L1319.6,107.1Z"/><path d="M474.0,71.7 L480.1,73.5 L491.1,73.5 L495.9,75.3 L494.6,77.4 L501.0,78.6 L504.5,79.9 L512.0,80.2 L520.1,80.7 L528.9,79.4 L540.3,79.0 L549.3,79.4 L555.2,81.5 L556.5,83.8 L553.0,85.2 L544.7,86.4 L537.6,85.8 L521.7,86.6 L510.3,86.7 L501.3,86.0 L486.5,84.2 L484.6,81.2 L483.9,78.4 L478.4,76.0 L466.9,75.3 L460.4,73.6 L462.5,71.3 L474.0,71.7Z"/><path d="M354.5,68.6 L353.7,72.9 L349.4,74.8 L344.2,75.1 L333.9,77.5 L325.0,78.3 L317.5,77.1 L317.5,77.1 L326.9,73.0 L338.3,69.4 L346.8,69.5 L354.5,68.6Z"/><path d="M1594.3,72.4 L1595.8,75.1 L1600.9,73.8 L1617.1,73.8 L1629.6,76.5 L1634.1,78.6 L1632.7,81.5 L1626.6,83.2 L1612.0,86.2 L1607.8,87.9 L1614.7,88.7 L1622.9,90.1 L1627.9,89.0 L1630.7,92.6 L1633.2,91.1 L1642.0,90.3 L1659.9,91.2 L1661.2,93.8 L1684.4,94.6 L1684.8,90.4 L1696.6,91.3 L1705.4,91.3 L1714.4,94.2 L1717.0,97.8 L1713.7,100.1 L1720.6,104.5 L1729.4,106.7 L1734.7,100.9 L1743.7,103.4 L1753.1,101.9 L1763.9,103.6 L1768.0,102.1 L1777.1,102.8 L1773.0,97.7 L1780.4,95.3 L1830.6,98.9 L1835.3,102.2 L1849.8,106.4 L1872.3,105.4 L1883.3,106.3 L1887.9,108.6 L1887.3,112.7 L1894.1,114.2 L1901.6,113.1 L1911.4,113.0 L1921.9,114.0 L1932.4,113.4 L1942.1,118.4 L1949.0,116.6 L1944.5,113.0 L1947.0,110.6 L1964.7,112.1 L1976.2,111.8 L1992.2,114.4 L2000.0,116.9 L2000.0,139.0 L2000.0,139.0 L1992.8,141.5 L1985.6,141.1 L1990.6,144.0 L1993.9,148.6 L1996.5,150.1 L1997.1,152.4 L1995.7,153.9 L1985.4,152.7 L1969.8,156.8 L1964.9,157.5 L1956.4,161.4 L1948.3,164.8 L1946.3,167.3 L1938.3,163.5 L1923.9,167.8 L1921.3,165.8 L1916.0,168.2 L1908.6,167.4 L1906.8,171.0 L1900.1,176.4 L1900.3,178.7 L1906.6,179.9 L1905.9,188.0 L1900.7,188.2 L1898.3,192.9 L1900.7,195.2 L1890.9,198.1 L1889.0,204.4 L1880.7,205.8 L1879.1,211.4 L1871.1,216.6 L1869.0,212.8 L1866.6,204.7 L1863.5,192.3 L1866.2,184.6 L1870.9,181.3 L1871.2,178.7 L1879.8,177.5 L1889.7,170.5 L1899.3,164.8 L1909.3,160.3 L1913.7,152.5 L1907.0,153.0 L1903.7,157.5 L1889.6,163.6 L1885.0,156.8 L1870.7,158.7 L1856.8,168.0 L1861.4,171.4 L1849.0,172.9 L1840.4,173.4 L1840.8,169.4 L1832.1,168.6 L1825.2,171.3 L1808.3,170.4 L1790.0,172.0 L1772.0,182.8 L1750.7,195.9 L1759.5,196.6 L1762.2,200.1 L1767.6,201.4 L1771.1,198.6 L1777.2,198.9 L1785.3,205.1 L1785.4,209.8 L1781.1,215.3 L1780.6,222.0 L1778.1,230.9 L1769.7,238.9 L1767.9,242.7 L1760.3,249.2 L1752.9,255.6 L1749.3,258.9 L1741.9,262.2 L1738.4,262.2 L1734.9,259.5 L1727.4,263.6 L1726.6,265.4 L1724.4,265.1 L1722.0,267.0 L1720.4,268.9 L1720.6,272.9 L1717.7,274.1 L1716.7,275.1 L1714.6,276.7 L1710.9,277.6 L1708.5,279.1 L1708.3,281.5 L1707.7,282.1 L1709.9,283.1 L1713.1,285.5 L1717.8,292.0 L1719.2,295.6 L1719.3,302.0 L1717.2,305.1 L1712.1,306.2 L1707.7,308.5 L1702.7,308.9 L1702.1,305.9 L1703.1,301.8 L1700.7,296.0 L1704.8,295.0 L1701.0,290.3 L1698.3,289.2 L1697.6,290.3 L1696.0,290.7 L1695.8,289.7 L1694.3,289.2 L1692.8,288.3 L1694.4,285.8 L1695.7,285.2 L1695.2,284.2 L1696.6,281.2 L1696.2,280.3 L1693.0,279.7 L1690.4,278.2 L1682.6,279.8 L1678.5,282.4 L1672.5,283.9 L1675.5,281.3 L1674.3,279.2 L1678.7,275.4 L1675.8,272.5 L1670.9,274.5 L1664.7,278.3 L1661.2,281.9 L1655.8,282.2 L1653.0,284.8 L1655.9,288.5 L1660.4,289.5 L1660.6,292.0 L1665.0,293.6 L1671.2,289.6 L1676.2,291.8 L1679.8,291.9 L1680.7,294.8 L1672.8,296.4 L1670.2,299.4 L1664.8,302.2 L1662.0,306.1 L1667.9,309.1 L1670.1,314.6 L1673.5,319.7 L1677.3,323.9 L1677.2,328.1 L1673.7,329.6 L1675.0,332.5 L1678.3,334.3 L1677.4,338.8 L1676.0,343.2 L1672.9,343.7 L1668.9,349.7 L1664.4,357.0 L1659.2,363.6 L1651.6,368.8 L1643.8,373.4 L1637.6,374.1 L1634.2,376.5 L1632.3,374.7 L1629.1,377.5 L1621.4,380.3 L1615.5,381.1 L1613.6,387.0 L1610.5,387.3 L1609.0,383.3 L1610.4,381.1 L1602.9,379.4 L1600.3,380.3 L1592.9,385.0 L1588.2,390.3 L1587.0,394.1 L1591.3,400.0 L1596.5,407.2 L1601.5,410.7 L1604.9,415.1 L1607.4,425.4 L1606.7,435.2 L1602.0,438.8 L1595.7,442.4 L1591.1,447.1 L1584.2,452.2 L1582.2,448.7 L1583.8,444.9 L1579.6,441.7 L1575.0,440.9 L1572.7,438.0 L1569.9,432.3 L1564.9,429.7 L1560.2,429.8 L1561.0,425.5 L1556.1,425.5 L1555.7,431.6 L1552.7,439.7 L1550.9,444.6 L1551.2,448.7 L1554.9,448.8 L1557.1,453.9 L1558.1,458.7 L1561.2,461.9 L1564.6,462.6 L1567.5,465.4 L1568.7,466.0 L1572.0,469.3 L1574.3,473.0 L1574.7,476.8 L1574.1,479.3 L1574.6,481.2 L1575.0,484.5 L1577.0,486.0 L1579.2,490.9 L1579.0,492.8 L1575.1,493.2 L1569.9,489.1 L1563.3,484.7 L1562.6,481.8 L1559.4,478.1 L1558.7,473.5 L1556.6,470.5 L1557.3,466.4 L1556.0,464.1 L1553.8,462.0 L1552.9,459.2 L1549.9,456.1 L1547.2,453.4 L1546.3,456.7 L1545.3,453.6 L1545.9,450.1 L1547.5,444.8 L1547.0,440.7 L1548.7,436.4 L1546.8,433.1 L1547.3,427.1 L1545.0,424.2 L1543.2,417.6 L1542.2,410.6 L1539.8,406.0 L1536.1,408.7 L1529.8,412.7 L1526.7,412.2 L1523.3,410.9 L1525.2,404.0 L1524.0,398.8 L1519.7,392.4 L1520.4,390.4 L1517.1,389.7 L1513.2,385.2 L1511.6,382.3 L1511.3,379.4 L1510.2,376.8 L1507.9,373.5 L1502.8,373.3 L1503.3,375.6 L1501.5,378.7 L1499.2,377.6 L1498.3,378.6 L1496.8,378.0 L1494.6,377.5 L1493.8,379.5 L1490.0,379.4 L1483.2,380.6 L1483.5,384.8 L1480.6,388.0 L1472.6,391.8 L1466.3,398.3 L1462.2,401.8 L1456.6,405.5 L1456.6,408.0 L1453.8,409.4 L1448.8,411.4 L1446.2,411.7 L1444.6,415.9 L1445.7,423.1 L1446.0,427.7 L1443.7,433.0 L1443.7,442.5 L1440.8,442.7 L1438.3,447.0 L1439.9,448.8 L1434.9,450.4 L1433.0,454.2 L1430.8,455.7 L1425.5,450.6 L1422.9,442.8 L1420.8,437.2 L1418.9,434.5 L1415.9,429.2 L1414.5,422.3 L1413.6,418.8 L1408.5,411.2 L1406.2,400.4 L1404.6,393.3 L1404.6,386.6 L1403.5,381.4 L1395.4,384.7 L1391.5,384.0 L1384.2,377.3 L1386.9,375.3 L1385.3,373.1 L1378.8,368.4 L1374.7,367.0 L1373.0,363.0 L1368.7,358.7 L1358.5,359.8 L1349.5,359.9 L1341.7,360.7 L1331.2,359.0 L1325.1,357.7 L1318.9,357.0 L1316.5,350.2 L1313.8,349.2 L1309.6,350.2 L1304.0,352.9 L1297.2,351.0 L1291.6,346.8 L1286.2,345.2 L1282.5,339.9 L1278.4,332.5 L1275.4,333.4 L1271.9,331.6 L1269.8,333.7 L1266.5,333.5 L1267.7,335.9 L1267.2,337.2 L1269.0,341.4 L1271.2,346.2 L1273.9,347.4 L1274.8,349.4 L1278.6,351.7 L1279.0,354.0 L1278.4,355.9 L1279.1,357.7 L1280.7,359.3 L1281.4,361.1 L1282.3,362.5 L1281.9,358.4 L1283.4,355.5 L1284.9,354.9 L1286.6,356.7 L1286.7,359.9 L1285.5,363.2 L1286.6,365.3 L1287.5,365.0 L1287.7,366.6 L1292.1,365.7 L1296.7,365.8 L1300.0,366.0 L1303.9,362.2 L1308.0,358.7 L1311.5,355.2 L1313.1,353.4 L1313.8,353.8 L1313.3,356.1 L1312.6,357.1 L1313.3,361.5 L1315.8,365.3 L1318.9,367.3 L1323.0,368.1 L1326.3,369.1 L1328.8,372.3 L1330.3,374.1 L1332.3,374.8 L1332.3,376.1 L1330.2,379.4 L1329.3,380.9 L1327.0,382.7 L1324.9,386.5 L1322.4,386.2 L1321.3,387.5 L1320.4,390.4 L1321.0,394.1 L1320.5,394.8 L1318.0,394.7 L1314.5,396.8 L1314.0,399.5 L1312.7,400.7 L1309.2,400.6 L1307.1,402.0 L1307.1,404.3 L1304.4,405.8 L1301.3,405.3 L1297.6,407.2 L1295.0,407.5 L1291.0,409.0 L1290.0,411.5 L1289.8,413.3 L1284.3,415.7 L1275.4,418.3 L1270.4,422.2 L1268.0,422.5 L1266.3,422.2 L1263.1,424.5 L1259.5,425.6 L1254.9,425.8 L1253.5,426.2 L1252.3,427.6 L1250.8,428.0 L1249.9,429.4 L1247.2,429.3 L1245.4,430.1 L1241.6,429.8 L1240.1,426.6 L1240.3,423.5 L1239.4,421.9 L1238.3,417.8 L1236.7,415.5 L1237.8,415.2 L1237.2,412.7 L1237.9,411.6 L1237.7,409.2 L1236.9,406.8 L1235.3,405.1 L1234.8,402.9 L1232.0,400.9 L1229.0,396.3 L1227.4,391.7 L1223.6,387.9 L1221.1,387.0 L1217.4,381.7 L1216.8,377.9 L1217.0,374.6 L1213.8,368.4 L1211.2,366.2 L1208.2,365.1 L1206.4,361.9 L1206.7,360.6 L1205.2,357.8 L1203.6,356.5 L1201.4,352.4 L1198.0,347.9 L1195.2,344.1 L1192.4,344.1 L1193.3,341.1 L1193.5,339.1 L1194.2,336.9 L1194.0,336.1 L1192.5,338.3 L1191.3,342.5 L1189.7,345.4 L1188.5,346.4 L1186.6,344.6 L1184.1,342.1 L1180.1,334.2 L1179.6,334.7 L1181.9,340.5 L1185.3,346.1 L1189.5,354.8 L1191.5,357.8 L1193.3,360.9 L1198.3,367.1 L1197.2,368.0 L1197.4,371.7 L1203.8,376.6 L1204.8,377.8 L1206.6,383.2 L1205.4,384.2 L1206.2,390.0 L1208.2,396.6 L1210.3,398.0 L1213.4,400.0 L1216.6,406.4 L1218.1,411.5 L1221.2,414.2 L1228.8,419.5 L1231.9,422.7 L1234.9,425.9 L1236.6,427.8 L1239.3,429.4 L1240.7,431.2 L1240.5,433.5 L1237.3,434.8 L1239.7,436.3 L1241.5,437.3 L1242.6,439.6 L1245.1,442.0 L1247.9,442.0 L1253.1,440.6 L1259.1,439.9 L1264.0,438.2 L1266.8,437.8 L1268.8,436.8 L1271.9,436.6 L1273.7,436.5 L1276.3,435.7 L1279.2,435.1 L1281.8,433.2 L1284.0,433.2 L1284.1,434.7 L1283.6,438.0 L1283.6,440.9 L1282.4,442.9 L1280.8,448.9 L1278.2,455.1 L1274.7,462.2 L1270.0,470.3 L1265.2,476.6 L1258.7,484.1 L1253.1,488.6 L1244.8,494.2 L1239.6,498.4 L1233.6,505.1 L1232.3,508.0 L1231.0,509.4 L1227.1,511.6 L1225.8,513.9 L1223.7,514.3 L1222.9,518.2 L1221.1,520.5 L1220.0,524.1 L1217.8,526.0 L1215.2,532.8 L1215.6,536.0 L1219.1,538.0 L1219.3,539.4 L1217.7,542.8 L1218.1,544.5 L1217.7,547.1 L1219.6,550.6 L1221.9,556.1 L1224.0,557.3 L1224.9,559.8 L1224.7,565.3 L1225.3,570.2 L1225.6,578.9 L1226.5,581.6 L1224.9,585.6 L1222.7,589.4 L1219.2,592.9 L1214.1,595.0 L1207.8,597.7 L1201.6,603.7 L1199.4,604.7 L1195.5,608.6 L1193.3,609.9 L1192.8,613.9 L1195.4,618.1 L1196.5,621.3 L1196.6,623.0 L1197.6,622.7 L1197.4,628.2 L1196.5,630.8 L1197.8,631.7 L1197.0,634.0 L1194.7,636.0 L1190.1,637.9 L1183.4,640.9 L1181.0,642.9 L1181.4,645.3 L1182.9,645.6 L1182.4,648.6 L1181.0,652.6 L1180.3,657.2 L1178.9,659.7 L1175.1,662.5 L1174.0,663.3 L1171.7,666.2 L1170.1,669.0 L1167.0,673.0 L1160.7,678.7 L1156.8,682.1 L1152.6,684.6 L1146.8,686.7 L1143.9,687.0 L1143.2,688.6 L1139.8,687.8 L1137.1,688.8 L1131.1,687.7 L1127.7,688.4 L1125.4,688.1 L1119.7,690.3 L1114.9,691.2 L1111.5,693.3 L1109.0,693.4 L1106.6,691.5 L1104.8,691.4 L1102.4,688.9 L1102.1,689.6 L1101.4,688.2 L1101.4,684.9 L1099.6,681.2 L1101.4,680.2 L1101.2,675.9 L1097.6,670.7 L1094.8,666.0 L1094.8,666.0 L1090.8,658.8 L1086.7,654.6 L1084.5,650.5 L1083.3,645.1 L1081.9,641.1 L1080.0,632.5 L1079.9,625.9 L1079.2,622.8 L1077.0,620.5 L1074.2,616.0 L1071.3,609.3 L1070.0,605.8 L1065.5,600.4 L1065.2,596.1 L1064.7,592.6 L1065.4,587.7 L1067.4,582.7 L1067.6,580.3 L1069.4,575.3 L1070.8,573.0 L1074.0,569.4 L1075.7,566.9 L1076.3,562.8 L1076.0,559.6 L1074.4,557.6 L1072.9,554.3 L1071.5,550.9 L1071.8,549.8 L1073.5,547.6 L1071.9,542.2 L1070.7,538.5 L1067.9,535.0 L1068.5,533.9 L1067.7,532.2 L1066.2,528.0 L1061.6,522.1 L1055.9,516.5 L1052.3,511.9 L1048.9,506.2 L1049.1,504.3 L1050.3,502.6 L1051.6,498.5 L1052.7,494.4 L1051.7,493.6 L1053.6,487.3 L1054.4,482.9 L1052.2,479.3 L1049.7,478.3 L1048.6,475.8 L1047.2,475.0 L1047.2,473.5 L1041.5,475.5 L1039.3,475.2 L1037.2,476.4 L1032.8,476.3 L1029.8,472.8 L1028.0,468.8 L1024.0,465.2 L1019.9,465.2 L1015.0,465.2 L1010.4,465.9 L1005.9,467.1 L997.2,470.3 L994.1,472.2 L989.1,473.8 L984.1,472.3 L981.6,472.3 L977.7,471.2 L974.2,471.3 L967.6,472.3 L963.7,473.9 L958.2,475.9 L957.2,475.8 L955.7,475.8 L950.0,473.2 L944.9,468.9 L940.2,465.9 L936.5,462.3 L935.0,461.9 L931.0,459.7 L928.1,456.7 L927.1,454.6 L926.4,450.5 L924.0,447.3 L921.8,445.1 L920.4,444.4 L919.0,443.3 L918.4,440.8 L917.6,439.6 L915.9,438.7 L913.0,436.3 L910.6,436.0 L909.4,434.4 L909.4,433.6 L907.7,432.4 L907.3,431.2 L906.4,426.9 L907.1,424.5 L904.9,420.1 L902.1,418.2 L904.5,417.1 L907.2,413.2 L908.5,410.4 L908.1,407.4 L909.6,404.6 L910.3,399.4 L909.7,393.9 L909.0,391.1 L909.6,388.4 L908.1,385.7 L905.2,383.3 L905.4,381.0 L905.7,378.4 L907.8,376.9 L909.7,374.0 L909.3,372.1 L911.2,368.2 L914.3,364.7 L916.2,363.8 L917.6,360.5 L917.8,357.6 L919.8,354.1 L923.5,352.1 L927.0,346.4 L929.9,344.2 L935.1,343.6 L939.4,339.8 L942.2,338.3 L946.9,333.7 L945.5,326.8 L947.6,322.0 L948.3,319.1 L951.9,315.3 L957.5,312.8 L961.6,310.5 L965.3,304.7 L967.1,301.3 L971.1,301.4 L974.5,303.7 L979.8,303.3 L985.5,304.6 L987.9,304.6 L993.3,301.6 L999.3,300.6 L1002.8,298.3 L1008.1,296.6 L1017.6,295.6 L1026.8,295.2 L1029.6,296.0 L1034.8,293.8 L1040.7,293.8 L1043.0,295.1 L1046.8,294.7 L1052.8,292.5 L1056.7,293.2 L1056.6,296.0 L1061.3,293.9 L1061.7,295.0 L1058.9,297.7 L1058.9,300.3 L1060.8,301.7 L1060.0,306.5 L1056.4,309.3 L1057.4,312.3 L1060.3,312.4 L1061.7,315.0 L1063.8,315.9 L1070.4,317.8 L1072.7,317.3 L1077.3,318.3 L1084.7,320.7 L1087.3,325.7 L1092.3,326.8 L1100.1,329.1 L1106.0,331.9 L1108.7,330.4 L1111.4,327.9 L1110.1,323.6 L1111.9,320.9 L1115.9,318.3 L1119.7,317.5 L1127.2,318.7 L1129.1,321.2 L1131.2,321.2 L1132.9,322.1 L1138.5,322.8 L1139.8,324.6 L1147.2,324.5 L1152.5,326.0 L1158.1,327.6 L1160.6,328.5 L1164.9,326.7 L1167.2,325.1 L1172.1,324.7 L1176.0,325.4 L1177.6,328.1 L1178.8,326.3 L1183.3,327.6 L1187.6,328.0 L1190.4,326.6 L1192.0,324.7 L1191.6,324.4 L1193.1,321.8 L1194.2,317.6 L1195.0,316.2 L1195.1,316.2 L1197.1,311.6 L1199.9,307.7 L1200.0,307.5 L1199.5,303.3 L1200.8,301.0 L1198.8,298.5 L1200.9,296.4 L1197.5,296.9 L1192.9,295.6 L1189.0,298.8 L1180.6,299.4 L1176.1,296.4 L1170.1,296.2 L1168.8,298.5 L1165.0,299.2 L1159.6,296.2 L1153.6,296.3 L1150.3,290.8 L1146.2,287.7 L1148.9,283.4 L1145.4,280.8 L1151.6,275.4 L1160.1,275.2 L1162.4,271.0 L1173.0,271.7 L1179.7,268.1 L1186.2,266.6 L1195.4,266.4 L1205.1,270.4 L1213.0,272.5 L1219.5,271.7 L1224.3,272.1 L1230.9,269.2 L1231.7,266.9 L1230.3,263.1 L1227.1,261.0 L1224.0,260.4 L1222.0,258.7 L1214.9,254.0 L1208.6,251.9 L1203.8,248.6 L1207.8,247.8 L1212.4,243.1 L1209.3,240.9 L1217.5,238.6 L1217.3,237.4 L1212.4,238.3 L1207.9,238.8 L1204.2,240.6 L1199.0,240.9 L1194.2,242.9 L1194.6,246.4 L1197.3,247.7 L1202.9,247.4 L1201.9,249.4 L1195.8,250.3 L1188.2,253.5 L1185.1,252.4 L1186.4,249.8 L1180.3,248.2 L1181.3,247.1 L1186.6,245.3 L1185.0,244.0 L1176.4,242.6 L1176.0,240.5 L1170.8,241.2 L1168.8,244.3 L1164.5,248.4 L1164.6,249.8 L1161.9,251.0 L1160.2,250.5 L1158.7,257.2 L1155.8,259.5 L1153.7,263.5 L1155.5,266.6 L1156.2,268.8 L1161.0,270.6 L1160.0,271.9 L1153.4,272.2 L1151.1,273.9 L1146.4,276.9 L1144.7,274.3 L1144.8,273.2 L1141.4,273.0 L1138.5,272.5 L1131.7,274.0 L1135.6,277.1 L1132.8,278.0 L1129.7,278.0 L1126.7,275.1 L1125.7,276.4 L1126.9,279.7 L1129.7,282.3 L1127.6,283.5 L1130.7,286.1 L1133.5,287.7 L1133.6,290.8 L1128.4,289.3 L1130.1,292.2 L1126.5,292.7 L1128.6,297.7 L1124.9,297.7 L1120.4,295.3 L1118.3,290.9 L1117.3,287.2 L1115.2,284.6 L1112.3,281.4 L1111.9,279.9 L1111.0,279.5 L1110.9,278.2 L1107.8,276.4 L1107.3,273.7 L1107.8,269.9 L1108.6,268.2 L1107.6,267.3 L1106.5,266.9 L1104.9,265.1 L1102.5,264.0 L1097.3,261.9 L1094.1,259.9 L1089.0,258.3 L1084.3,254.2 L1085.4,253.8 L1082.9,251.5 L1082.8,249.6 L1079.2,248.7 L1077.5,251.1 L1075.9,249.2 L1076.0,247.3 L1076.2,247.2 L1077.4,246.7 L1073.0,245.9 L1068.5,247.9 L1068.8,250.6 L1068.1,252.2 L1069.9,255.0 L1075.1,257.8 L1077.9,262.4 L1084.1,266.9 L1088.5,266.9 L1089.8,268.1 L1088.3,269.2 L1093.3,271.2 L1097.3,272.9 L1102.1,275.8 L1102.7,276.8 L1101.6,278.8 L1098.5,276.2 L1093.7,275.3 L1091.4,278.9 L1095.4,281.0 L1094.7,283.9 L1092.4,284.2 L1089.5,289.0 L1087.1,289.4 L1087.2,287.7 L1088.3,284.7 L1089.5,283.5 L1087.3,280.3 L1085.6,277.5 L1083.3,276.8 L1081.7,274.4 L1078.1,273.4 L1075.7,271.2 L1071.6,270.8 L1067.3,268.3 L1062.2,264.7 L1058.4,261.5 L1056.7,256.0 L1053.9,255.4 L1049.4,253.5 L1046.8,254.3 L1043.6,256.8 L1041.3,257.3 L1036.3,260.4 L1025.3,258.9 L1017.2,260.7 L1016.6,264.0 L1016.9,267.3 L1011.6,271.0 L1004.5,272.1 L1004.0,274.0 L1000.6,277.1 L998.5,281.6 L1000.6,284.8 L997.4,287.3 L996.2,290.9 L992.0,292.0 L988.1,296.3 L981.0,296.3 L975.7,296.2 L972.2,298.2 L970.1,300.3 L967.4,299.8 L965.4,298.0 L963.8,294.8 L958.6,293.9 L956.4,295.3 L953.4,294.6 L950.6,295.2 L951.4,290.8 L950.9,287.4 L948.4,286.9 L947.1,284.8 L947.5,281.2 L949.7,279.1 L950.1,276.9 L951.3,273.6 L951.2,271.2 L950.1,269.2 L949.8,267.3 L950.1,263.4 L947.8,261.0 L955.7,257.0 L962.5,258.0 L969.9,257.9 L975.8,258.9 L980.5,258.6 L989.4,258.8 L992.3,255.4 L993.4,244.4 L987.6,238.5 L983.5,235.7 L975.0,233.6 L974.5,229.5 L981.7,228.3 L991.0,229.8 L989.3,223.5 L994.5,225.8 L1007.4,221.5 L1009.1,217.0 L1014.0,215.8 L1018.4,214.7 L1021.3,213.2 L1026.1,205.0 L1033.7,202.7 L1038.4,202.9 L1039.4,201.7 L1044.1,201.4 L1045.1,202.6 L1048.9,199.9 L1047.6,197.8 L1047.4,194.7 L1045.1,191.6 L1044.9,185.9 L1045.9,184.4 L1047.5,182.7 L1052.4,182.4 L1054.3,180.8 L1058.8,179.3 L1058.6,182.1 L1056.9,183.9 L1057.6,185.5 L1060.6,186.3 L1059.3,188.4 L1057.6,187.8 L1053.6,191.8 L1055.1,194.5 L1055.2,196.7 L1060.8,198.0 L1060.8,200.0 L1066.4,198.9 L1069.5,197.4 L1075.8,199.6 L1078.4,201.3 L1082.2,199.7 L1090.9,197.1 L1097.9,195.3 L1103.4,196.2 L1103.9,197.6 L1109.2,197.6 L1110.5,195.2 L1118.2,193.4 L1117.0,188.7 L1117.2,184.5 L1119.9,181.0 L1125.1,179.1 L1129.5,183.3 L1134.0,183.2 L1135.1,178.9 L1135.7,175.6 L1133.7,176.3 L1130.1,174.4 L1129.7,171.2 L1136.7,169.6 L1143.7,168.8 L1149.7,169.7 L1155.5,169.6 L1161.8,166.5 L1155.9,163.9 L1145.9,164.3 L1136.1,166.3 L1127.1,167.5 L1123.8,164.5 L1118.5,162.7 L1119.7,157.2 L1117.0,152.2 L1119.6,148.9 L1124.7,145.5 L1137.4,139.4 L1141.1,138.3 L1140.5,135.9 L1132.8,133.3 L1123.2,134.9 L1117.9,138.7 L1118.7,142.1 L1109.9,146.6 L1099.2,151.4 L1095.1,159.2 L1099.1,163.1 L1104.4,166.2 L1099.3,172.5 L1093.5,173.8 L1091.4,183.1 L1088.2,188.3 L1081.5,187.8 L1078.3,192.2 L1071.9,192.4 L1070.1,187.2 L1065.5,180.9 L1061.3,173.0 L1057.5,169.6 L1046.6,176.0 L1039.2,177.3 L1031.5,174.5 L1029.5,168.5 L1027.7,155.7 L1032.8,152.1 L1047.5,147.5 L1058.5,141.7 L1068.7,134.0 L1082.0,123.3 L1091.3,119.1 L1106.6,112.1 L1118.8,109.7 L1127.9,110.0 L1136.4,105.4 L1146.5,105.6 L1156.5,104.5 L1173.9,108.6 L1166.7,110.1 L1172.8,113.6 L1178.5,111.6 L1187.6,115.0 L1202.9,116.3 L1223.8,122.6 L1228.1,125.2 L1228.5,128.9 L1222.3,131.9 L1213.2,133.3 L1188.4,129.1 L1184.4,129.8 L1193.4,133.9 L1194.1,142.1 L1201.3,143.8 L1205.6,145.3 L1206.3,142.6 L1202.9,140.1 L1206.5,138.1 L1220.0,141.6 L1224.6,140.2 L1220.9,136.1 L1233.9,130.7 L1239.0,131.0 L1244.2,132.9 L1247.4,129.1 L1242.8,125.8 L1245.5,122.5 L1241.4,119.1 L1256.9,120.8 L1260.1,123.9 L1253.1,124.6 L1253.1,127.7 L1257.5,129.6 L1266.1,128.4 L1267.4,124.9 L1279.0,122.2 L1298.4,117.5 L1302.6,117.7 L1297.1,121.1 L1304.0,121.7 L1308.0,119.8 L1318.4,119.6 L1326.7,117.3 L1333.0,120.7 L1339.3,117.0 L1333.5,113.8 L1336.4,111.9 L1352.8,113.6 L1360.5,115.4 L1380.6,121.7 L1384.3,118.8 L1378.7,115.9 L1378.5,114.7 L1371.8,114.1 L1373.7,111.5 L1370.7,107.2 L1370.5,105.4 L1380.8,100.4 L1384.4,95.3 L1388.6,94.2 L1403.3,95.7 L1404.4,98.8 L1399.2,103.3 L1402.6,105.1 L1404.4,108.9 L1403.1,116.6 L1409.3,120.0 L1406.9,123.7 L1396.0,131.6 L1402.4,132.4 L1404.6,130.4 L1410.7,128.9 L1412.1,126.2 L1417.0,123.6 L1413.7,120.4 L1416.3,116.7 L1410.2,116.3 L1408.9,113.2 L1413.3,107.6 L1406.1,103.1 L1416.1,99.3 L1414.8,95.4 L1417.5,95.2 L1420.5,98.3 L1418.3,103.7 L1424.2,104.7 L1421.7,100.7 L1431.0,98.5 L1442.5,98.2 L1452.8,101.4 L1447.8,96.8 L1447.3,90.8 L1456.9,89.7 L1470.3,90.0 L1482.3,89.2 L1477.8,86.3 L1484.3,82.7 L1490.6,82.5 L1501.4,79.8 L1516.1,79.0 L1518.0,77.5 L1532.6,77.0 L1537.1,78.2 L1549.6,75.3 L1559.8,75.4 L1561.3,73.0 L1566.6,70.6 L1579.7,68.3 L1589.3,70.1 L1581.7,71.5 L1594.3,72.4Z"/><path d="M1272.8,270.7 L1275.7,274.6 L1278.2,274.9 L1280.0,276.4 L1275.4,276.8 L1274.4,281.1 L1273.5,283.1 L1271.4,284.4 L1271.6,287.1 L1273.3,291.2 L1278.6,292.4 L1282.5,295.2 L1290.4,296.1 L1299.0,294.6 L1299.6,293.3 L1298.5,289.4 L1299.3,283.6 L1295.0,281.7 L1296.4,277.9 L1292.7,277.6 L1294.0,272.9 L1299.2,274.3 L1304.1,272.5 L1300.0,269.2 L1298.5,266.0 L1294.0,267.4 L1293.4,271.5 L1291.7,267.9 L1291.4,266.5 L1292.7,264.2 L1291.7,262.3 L1285.2,260.4 L1282.7,255.4 L1279.7,254.0 L1279.5,252.2 L1284.9,252.7 L1285.1,248.6 L1289.8,247.7 L1294.7,248.6 L1295.7,243.1 L1294.7,239.7 L1289.1,240.0 L1284.4,238.6 L1278.0,241.1 L1272.8,242.2 L1270.3,245.5 L1264.9,246.4 L1259.3,252.2 L1264.4,257.4 L1263.8,261.2 L1269.9,267.7 L1272.8,270.7Z"/><path d="M478.7,69.3 L476.1,69.5 L465.7,69.1 L464.2,67.6 L475.4,67.7 L479.3,68.7 L478.7,69.3Z"/><path d="M387.9,68.3 L377.5,69.9 L369.3,68.2 L373.8,66.4 L381.9,65.8 L389.7,66.7 L387.9,68.3Z"/><path d="M1137.4,67.5 L1124.9,69.8 L1115.1,68.5 L1119.0,67.0 L1115.6,65.3 L1127.1,64.1 L1129.3,66.2 L1137.4,67.5Z"/><path d="M390.8,63.3 L384.0,64.4 L374.8,64.4 L374.9,63.6 L380.6,61.9 L383.5,62.2 L390.8,63.3Z"/><path d="M467.6,66.4 L459.4,67.5 L454.9,66.2 L452.5,64.1 L452.0,61.8 L459.2,62.0 L462.5,62.4 L469.1,64.3 L467.6,66.4Z"/><path d="M444.1,64.9 L446.3,67.2 L437.2,66.6 L428.1,64.8 L415.7,64.6 L421.1,62.9 L414.3,61.6 L413.9,59.4 L424.8,60.2 L439.9,62.2 L444.1,64.9Z"/><path d="M1583.8,65.0 L1552.4,67.1 L1562.6,59.8 L1567.1,59.2 L1571.3,59.5 L1585.4,62.7 L1583.8,65.0Z"/><path d="M1101.4,57.2 L1119.7,61.4 L1105.7,63.5 L1102.6,67.6 L1097.7,68.7 L1095.1,73.3 L1088.4,73.5 L1076.5,70.1 L1081.5,68.1 L1073.2,66.5 L1062.3,61.8 L1058.0,57.5 L1073.2,55.5 L1076.2,57.4 L1084.1,57.4 L1086.2,55.5 L1094.4,55.3 L1101.4,57.2Z"/><path d="M1141.4,53.3 L1152.3,55.2 L1144.0,58.2 L1127.9,58.9 L1111.5,58.0 L1110.5,56.4 L1102.6,56.3 L1096.5,53.8 L1113.6,52.2 L1121.7,53.6 L1127.3,51.9 L1141.4,53.3Z"/><path d="M1284.1,52.5 L1276.6,53.2 L1271.6,53.7 L1270.9,54.6 L1264.4,55.5 L1258.3,54.2 L1261.5,52.4 L1249.1,52.3 L1260.0,51.3 L1268.4,51.2 L1269.6,52.7 L1272.8,51.4 L1278.0,50.5 L1286.2,51.7 L1284.1,52.5Z"/><path d="M1555.2,61.8 L1543.1,62.5 L1527.6,60.9 L1518.4,58.7 L1514.1,54.8 L1506.6,53.7 L1521.0,49.9 L1533.0,48.6 L1543.8,51.4 L1556.6,56.8 L1555.2,61.8Z"/><path d="M516.6,57.4 L523.3,59.2 L515.6,60.9 L505.4,65.1 L495.5,65.5 L484.0,64.8 L478.0,62.5 L478.1,60.5 L482.5,59.0 L472.4,59.0 L466.2,57.2 L462.7,54.7 L466.6,52.2 L470.4,50.5 L476.1,50.1 L473.7,48.9 L486.6,48.6 L493.7,51.5 L503.1,52.7 L512.2,53.8 L516.6,57.4Z"/><path d="M619.4,38.3 L634.3,38.7 L646.2,39.4 L656.4,41.0 L656.1,42.4 L642.6,44.8 L629.1,46.0 L624.1,47.2 L636.2,47.2 L623.1,50.6 L614.1,52.1 L604.6,56.7 L593.1,57.6 L589.6,58.7 L572.7,59.3 L580.4,60.0 L576.6,61.0 L581.1,63.7 L575.9,65.7 L567.3,67.2 L564.7,69.4 L556.9,71.1 L557.7,72.3 L567.2,72.1 L567.3,73.5 L552.4,76.8 L537.9,75.3 L521.6,76.1 L513.3,75.4 L502.8,75.2 L502.1,72.5 L512.4,71.2 L509.7,67.2 L513.1,66.8 L527.9,69.2 L520.3,65.7 L511.3,64.6 L515.8,62.5 L525.7,61.1 L527.3,59.2 L519.4,57.0 L517.0,54.2 L532.2,54.4 L536.6,55.0 L545.3,53.0 L532.8,52.3 L513.3,52.7 L503.5,50.8 L498.9,48.6 L492.4,46.9 L491.2,45.0 L499.4,44.0 L505.9,43.8 L516.8,42.9 L525.0,40.8 L531.9,41.1 L537.9,42.7 L542.1,39.7 L549.4,38.8 L559.4,38.2 L576.4,37.9 L579.3,38.5 L595.4,37.6 L607.4,37.9 L619.4,38.3Z"/><path d="M849.4,36.0 L884.2,40.4 L873.9,42.5 L852.7,42.8 L822.8,43.3 L825.6,44.3 L845.2,43.7 L862.0,45.6 L872.8,43.9 L877.4,45.9 L871.3,49.2 L885.4,47.1 L912.4,44.9 L929.1,46.0 L932.2,48.4 L909.5,52.3 L906.4,53.6 L888.6,54.6 L901.5,54.8 L895.0,58.9 L890.5,62.5 L890.7,68.7 L897.4,72.3 L888.7,72.5 L879.6,74.3 L889.8,77.2 L891.1,82.0 L885.2,82.5 L892.4,87.2 L880.0,87.6 L886.5,89.9 L884.7,91.9 L876.8,92.7 L869.1,92.7 L876.0,96.5 L876.1,99.0 L865.1,96.7 L862.3,98.2 L869.8,99.6 L877.0,103.0 L879.1,107.4 L869.2,108.5 L865.0,106.4 L858.1,103.2 L860.0,106.9 L853.5,109.9 L868.2,110.1 L875.8,110.4 L860.9,115.2 L845.8,119.6 L829.6,121.5 L823.5,121.6 L817.7,123.7 L810.0,129.6 L798.0,133.5 L794.2,133.7 L786.8,135.0 L778.8,136.3 L774.1,139.8 L774.0,143.7 L771.2,147.3 L762.1,151.8 L764.4,156.1 L761.9,160.7 L759.0,166.1 L751.2,166.5 L743.0,161.9 L731.9,161.9 L726.5,158.9 L722.8,153.4 L713.1,146.5 L710.3,142.9 L709.6,137.9 L701.9,132.8 L703.9,128.7 L700.2,126.7 L705.7,120.2 L714.0,118.2 L716.2,115.8 L717.4,111.5 L711.0,113.5 L708.0,114.3 L703.0,115.1 L696.2,113.3 L695.8,109.5 L698.0,106.5 L703.2,106.5 L714.5,107.9 L704.9,104.4 L700.0,102.5 L694.4,103.3 L689.8,101.9 L696.0,96.7 L692.6,94.7 L688.2,90.8 L681.5,84.9 L674.5,82.8 L674.5,80.5 L659.6,77.2 L647.8,76.8 L633.0,77.0 L619.4,77.4 L613.0,75.7 L603.3,72.2 L617.9,70.4 L629.1,70.1 L605.3,68.7 L592.8,66.4 L593.6,64.3 L614.6,61.6 L634.9,58.9 L637.1,56.9 L622.1,54.9 L626.9,52.7 L646.2,48.8 L654.3,48.2 L651.9,45.7 L665.1,44.3 L682.2,43.4 L699.3,43.3 L705.3,45.1 L720.1,42.0 L733.3,44.1 L741.1,44.5 L752.7,46.3 L739.4,43.3 L740.2,41.0 L758.9,37.6 L778.3,37.9 L785.4,35.8 L805.1,35.3 L849.4,36.0Z"/></g><g fill="none" stroke="#14161c" stroke-opacity="0.5" stroke-width="2.4" stroke-linecap="round" stroke-dasharray="1 7"><path d="M1300.0,430.6 L1298.8,430.4 L1297.6,430.2 L1296.5,430.0 L1295.3,429.8 L1294.1,429.7 L1292.9,429.5 L1291.7,429.3 L1290.5,429.1 L1289.4,429.0 L1288.2,428.8 L1287.0,428.6 L1285.8,428.4 L1284.6,428.3 L1283.4,428.1 L1282.3,427.9 L1281.1,427.8 L1279.9,427.6 L1278.7,427.4 L1277.5,427.3 L1276.3,427.1 L1275.1,426.9 L1274.0,426.8 L1272.8,426.6 L1271.6,426.5 L1270.4,426.3 L1269.2,426.1 L1268.0,426.0 L1266.8,425.8 L1265.6,425.7 L1264.5,425.5 L1263.3,425.4 L1262.1,425.2 L1260.9,425.1 L1259.7,424.9 L1258.5,424.8 L1257.3,424.6 L1256.1,424.5 L1254.9,424.3 L1253.7,424.2 L1252.6,424.1 L1251.4,423.9 L1250.2,423.8 L1249.0,423.6 L1247.8,423.5 L1246.6,423.4 L1245.4,423.2 L1244.2,423.1 L1243.0,422.9 L1241.8,422.8 L1240.6,422.7 L1239.4,422.5 L1238.2,422.4 L1237.0,422.3 L1235.9,422.2 L1234.7,422.0 L1233.5,421.9 L1232.3,421.8 L1231.1,421.7 L1229.9,421.5 L1228.7,421.4 L1227.5,421.3 L1226.3,421.2 L1225.1,421.0 L1223.9,420.9"/><path d="M1223.9,420.9 L1214.4,423.7 L1204.9,426.5 L1195.4,429.4 L1186.0,432.4 L1176.6,435.4 L1167.3,438.4 L1157.9,441.5 L1148.7,444.7 L1139.4,447.9 L1130.2,451.1 L1121.0,454.4 L1111.9,457.8 L1102.8,461.1 L1093.7,464.5 L1084.6,467.9 L1075.5,471.4 L1066.5,474.9 L1057.4,478.4 L1048.4,481.9 L1039.4,485.4 L1030.4,488.9 L1021.4,492.5 L1012.4,496.0 L1003.5,499.6 L994.5,503.1 L985.5,506.7 L976.5,510.2 L967.5,513.7 L958.5,517.3 L949.5,520.8 L940.5,524.3 L931.4,527.8 L922.4,531.2 L913.3,534.6 L904.2,538.0 L895.1,541.4 L885.9,544.7 L876.8,548.0 L867.6,551.3 L858.3,554.5 L849.1,557.7 L839.8,560.8 L830.4,563.9 L821.1,566.9 L811.7,569.9 L802.2,572.8 L792.7,575.6 L783.2,578.4 L773.6,581.1 L764.0,583.7 L754.4,586.3 L744.7,588.8 L734.9,591.2 L725.1,593.5 L715.3,595.8 L705.4,598.0 L695.5,600.0 L685.6,602.0 L675.6,603.9 L665.6,605.7 L655.5,607.4 L645.4,609.0 L635.3,610.5 L625.1,611.9"/><path d="M625.1,611.9 L631.6,599.6 L638.0,587.3 L644.3,574.9 L650.4,562.5 L656.4,550.1 L662.4,537.7 L668.3,525.3 L674.2,512.8 L680.0,500.4 L685.9,488.0 L691.8,475.5 L697.7,463.1 L703.6,450.7 L709.7,438.3 L715.8,425.9 L722.0,413.6 L728.4,401.2 L734.9,389.0 L741.7,376.7 L748.6,364.5 L755.8,352.4 L763.2,340.3 L771.0,328.4 L779.1,316.5 L787.7,304.7 L796.7,293.0 L806.2,281.4 L816.2,270.0 L827.0,258.8 L838.5,247.8 L850.7,236.9 L864.0,226.4 L878.3,216.1 L893.7,206.2 L910.4,196.6 L928.6,187.5 L948.4,179.0 L969.8,171.0 L993.1,163.7 L1018.2,157.2 L1045.1,151.6 L1073.8,147.0 L1104.0,143.5 L1135.3,141.1 L1167.4,140.0 L1199.7,140.1 L1231.7,141.5 L1262.8,144.1 L1292.7,147.9 L1321.0,152.7 L1347.6,158.5 L1372.3,165.1 L1395.2,172.6 L1416.3,180.7 L1435.7,189.3 L1453.6,198.5 L1470.0,208.2 L1485.2,218.2 L1499.3,228.5 L1512.3,239.1 L1524.4,250.0 L1535.7,261.1 L1546.3,272.4 L1556.3,283.8"/><path d="M1556.3,283.8 L1558.0,287.8 L1559.7,291.8 L1561.4,295.8 L1563.0,299.9 L1564.6,303.9 L1566.2,307.9 L1567.7,312.0 L1569.3,316.0 L1570.8,320.0 L1572.2,324.1 L1573.7,328.1 L1575.1,332.2 L1576.5,336.2 L1577.9,340.3 L1579.3,344.4 L1580.6,348.4 L1581.9,352.5 L1583.3,356.5 L1584.5,360.6 L1585.8,364.7 L1587.1,368.8 L1588.4,372.8 L1589.6,376.9 L1590.8,381.0 L1592.0,385.1 L1593.2,389.1 L1594.4,393.2 L1595.6,397.3 L1596.8,401.4 L1597.9,405.5 L1599.1,409.6 L1600.2,413.6 L1601.4,417.7 L1602.5,421.8 L1603.6,425.9 L1604.7,430.0 L1605.8,434.1 L1606.9,438.2 L1608.0,442.3 L1609.1,446.4 L1610.2,450.5 L1611.3,454.6 L1612.4,458.7 L1613.4,462.8 L1614.5,466.9 L1615.6,471.0 L1616.7,475.1 L1617.7,479.2 L1618.8,483.3 L1619.8,487.3 L1620.9,491.4 L1622.0,495.5 L1623.0,499.6 L1624.1,503.7 L1625.1,507.8 L1626.2,511.9 L1627.2,516.0 L1628.3,520.1 L1629.4,524.2 L1630.4,528.3 L1631.5,532.4 L1632.6,536.5 L1633.6,540.6 L1634.7,544.7"/><path d="M1634.7,544.7 L1628.9,539.9 L1623.1,535.1 L1617.3,530.2 L1611.5,525.3 L1605.7,520.5 L1599.9,515.6 L1594.2,510.7 L1588.4,505.8 L1582.7,500.9 L1577.0,496.0 L1571.2,491.2 L1565.5,486.3 L1559.7,481.4 L1553.9,476.5 L1548.2,471.7 L1542.4,466.8 L1536.5,462.0 L1530.7,457.1 L1524.9,452.3 L1519.0,447.5 L1513.0,442.7 L1507.1,438.0 L1501.1,433.2 L1495.1,428.5 L1489.0,423.8 L1482.9,419.1 L1476.8,414.5 L1470.6,409.9 L1464.3,405.3 L1458.0,400.8 L1451.6,396.2 L1445.2,391.8 L1438.7,387.4 L1432.2,383.0 L1425.5,378.6 L1418.8,374.4 L1412.1,370.1 L1405.2,365.9 L1398.3,361.8 L1391.2,357.7 L1384.1,353.7 L1376.9,349.8 L1369.7,345.9 L1362.3,342.1 L1354.8,338.4 L1347.2,334.7 L1339.6,331.1 L1331.8,327.6 L1323.9,324.2 L1316.0,320.9 L1307.9,317.6 L1299.7,314.5 L1291.4,311.4 L1283.0,308.5 L1274.5,305.7 L1265.9,302.9 L1257.2,300.3 L1248.4,297.8 L1239.5,295.4 L1230.5,293.2 L1221.4,291.0 L1212.2,289.0 L1202.9,287.1 L1193.5,285.4"/><path d="M1193.5,285.4 L1191.2,282.5 L1188.8,279.6 L1186.4,276.7 L1183.9,273.9 L1181.4,271.0 L1178.9,268.2 L1176.3,265.3 L1173.7,262.5 L1171.0,259.7 L1168.3,256.9 L1165.5,254.1 L1162.7,251.3 L1159.9,248.6 L1157.0,245.8 L1154.0,243.1 L1151.0,240.3 L1147.9,237.6 L1144.8,234.9 L1141.6,232.3 L1138.4,229.6 L1135.1,226.9 L1131.7,224.3 L1128.3,221.7 L1124.8,219.1 L1121.3,216.5 L1117.6,214.0 L1113.9,211.4 L1110.1,208.9 L1106.2,206.4 L1102.3,204.0 L1098.3,201.5 L1094.2,199.1 L1090.0,196.7 L1085.7,194.4 L1081.3,192.0 L1076.8,189.7 L1072.2,187.4 L1067.6,185.2 L1062.8,183.0 L1057.9,180.8 L1052.9,178.6 L1047.9,176.5 L1042.7,174.5 L1037.4,172.4 L1031.9,170.4 L1026.4,168.5 L1020.8,166.5 L1015.0,164.7 L1009.1,162.9 L1003.1,161.1 L997.0,159.4 L990.7,157.7 L984.4,156.1 L977.9,154.5 L971.3,153.0 L964.5,151.5 L957.7,150.1 L950.7,148.8 L943.6,147.5 L936.5,146.3 L929.2,145.2 L921.8,144.1 L914.3,143.1 L906.7,142.1"/><path d="M906.7,142.1 L922.2,146.8 L936.9,151.8 L950.7,157.0 L963.6,162.5 L975.7,168.2 L987.2,174.1 L997.9,180.1 L1008.0,186.3 L1017.5,192.6 L1026.5,199.1 L1035.0,205.7 L1043.0,212.3 L1050.6,219.1 L1057.9,226.0 L1064.7,232.9 L1071.3,239.9 L1077.5,247.0 L1083.5,254.1 L1089.2,261.3 L1094.7,268.5 L1099.9,275.8 L1105.0,283.1 L1109.9,290.4 L1114.6,297.8 L1119.1,305.2 L1123.5,312.7 L1127.7,320.2 L1131.9,327.7 L1135.9,335.2 L1139.8,342.7 L1143.6,350.3 L1147.3,357.9 L1151.0,365.5 L1154.5,373.1 L1158.0,380.7 L1161.4,388.4 L1164.8,396.0 L1168.1,403.7 L1171.4,411.3 L1174.6,419.0 L1177.8,426.7 L1180.9,434.4 L1184.0,442.1 L1187.1,449.8 L1190.2,457.5 L1193.2,465.2 L1196.2,473.0 L1199.2,480.7 L1202.2,488.4 L1205.2,496.1 L1208.2,503.9 L1211.2,511.6 L1214.2,519.3 L1217.2,527.0 L1220.2,534.7 L1223.3,542.5 L1226.3,550.2 L1229.4,557.9 L1232.5,565.6 L1235.7,573.3 L1238.8,581.0 L1242.0,588.6 L1245.3,596.3 L1248.6,604.0"/><path d="M1248.6,604.0 L1243.3,610.4 L1238.0,616.8 L1232.5,623.2 L1227.0,629.5 L1221.3,635.8 L1215.6,642.1 L1209.8,648.3 L1203.8,654.5 L1197.7,660.6 L1191.5,666.7 L1185.2,672.7 L1178.7,678.7 L1172.0,684.6 L1165.2,690.5 L1158.2,696.2 L1151.1,701.9 L1143.7,707.6 L1136.1,713.1 L1128.4,718.6 L1120.4,723.9 L1112.2,729.2 L1103.7,734.3 L1095.0,739.3 L1086.1,744.2 L1076.8,749.0 L1067.3,753.6 L1057.6,758.1 L1047.5,762.5 L1037.1,766.7 L1026.5,770.7 L1015.5,774.5 L1004.2,778.1 L992.6,781.5 L980.8,784.7 L968.6,787.7 L956.2,790.5 L943.4,793.0 L930.5,795.3 L917.3,797.3 L903.8,799.0 L890.2,800.5 L876.5,801.7 L862.6,802.6 L848.6,803.2 L834.5,803.6 L820.5,803.6 L806.4,803.3 L792.4,802.8 L778.5,801.9 L764.7,800.8 L751.1,799.4 L737.6,797.7 L724.3,795.8 L711.3,793.6 L698.5,791.1 L686.0,788.4 L673.8,785.5 L661.8,782.3 L650.2,778.9 L638.8,775.3 L627.8,771.6 L617.1,767.6 L606.6,763.5 L596.5,759.2"/><path d="M596.5,759.2 L591.2,751.6 L586.1,744.0 L581.2,736.3 L576.6,728.6 L572.1,720.9 L567.9,713.1 L563.8,705.3 L559.8,697.5 L556.0,689.7 L552.3,681.8 L548.7,674.0 L545.2,666.1 L541.9,658.2 L538.6,650.3 L535.4,642.3 L532.2,634.4 L529.2,626.4 L526.2,618.5 L523.2,610.5 L520.4,602.5 L517.5,594.5 L514.7,586.5 L512.0,578.5 L509.2,570.5 L506.6,562.5 L503.9,554.5 L501.3,546.4 L498.6,538.4 L496.0,530.4 L493.4,522.3 L490.9,514.3 L488.3,506.3 L485.7,498.2 L483.1,490.2 L480.5,482.2 L478.0,474.1 L475.4,466.1 L472.8,458.1 L470.1,450.1 L467.5,442.0 L464.8,434.0 L462.1,426.0 L459.4,418.0 L456.6,410.0 L453.8,402.0 L450.9,394.0 L448.0,386.0 L445.1,378.0 L442.0,370.1 L438.9,362.1 L435.8,354.2 L432.5,346.3 L429.2,338.4 L425.8,330.5 L422.3,322.6 L418.6,314.7 L414.9,306.9 L411.0,299.0 L407.0,291.2 L402.8,283.5 L398.5,275.7 L393.9,268.0 L389.2,260.3 L384.3,252.7"/></g><circle cx="1300.0" cy="430.6" r="9" fill="#B33A20" stroke="#14161c" stroke-width="2"/><circle cx="1223.9" cy="420.9" r="9" fill="#E8D33A" stroke="#14161c" stroke-width="2"/><circle cx="625.1" cy="611.9" r="9" fill="#DCE9EE" stroke="#14161c" stroke-width="2"/><circle cx="1556.3" cy="283.8" r="9" fill="#E8A33D" stroke="#14161c" stroke-width="2"/><circle cx="1634.7" cy="544.7" r="9" fill="#5B3DFF" stroke="#14161c" stroke-width="2"/><circle cx="1193.5" cy="285.4" r="9" fill="#E0A08A" stroke="#14161c" stroke-width="2"/><circle cx="906.7" cy="142.1" r="9" fill="#1E5FA8" stroke="#14161c" stroke-width="2"/><circle cx="1248.6" cy="604.0" r="9" fill="#A8B4B0" stroke="#14161c" stroke-width="2"/><circle cx="596.5" cy="759.2" r="9" fill="#2AA9A0" stroke="#14161c" stroke-width="2"/><circle cx="384.3" cy="252.7" r="9" fill="#FF5A1F" stroke="#14161c" stroke-width="2"/></svg>
